<?xml version="1.0" encoding="UTF-8" standalone="no"?>
<!-- Created with Inkscape (http://www.inkscape.org/) -->

<svg
   width="120.27355mm"
   height="10.961946mm"
   viewBox="0 0 120.27355 10.961946"
   version="1.1"
   id="svg15841"
   xmlns="http://www.w3.org/2000/svg"
   xmlns:svg="http://www.w3.org/2000/svg">
  <defs
     id="defs15838">
    <clipPath
       clipPathUnits="userSpaceOnUse"
       id="clipPath14662">
      <g
         id="g14666"
         transform="translate(-588.4668,-471.6572)">
        <path
           d="M 0,612 H 792 V 0 H 0 Z"
           id="path14664" />
      </g>
    </clipPath>
    <clipPath
       clipPathUnits="userSpaceOnUse"
       id="clipPath14656">
      <g
         id="g14660"
         transform="translate(-579.6523,-470.3315)">
        <path
           d="M 0,612 H 792 V 0 H 0 Z"
           id="path14658" />
      </g>
    </clipPath>
    <clipPath
       clipPathUnits="userSpaceOnUse"
       id="clipPath14650">
      <g
         id="g14654"
         transform="translate(-591.5449,-468.4395)">
        <path
           d="M 0,612 H 792 V 0 H 0 Z"
           id="path14652" />
      </g>
    </clipPath>
    <clipPath
       clipPathUnits="userSpaceOnUse"
       id="clipPath14644">
      <g
         id="g14648"
         transform="translate(-591.5449,-466.6343)">
        <path
           d="M 0,612 H 792 V 0 H 0 Z"
           id="path14646" />
      </g>
    </clipPath>
    <clipPath
       clipPathUnits="userSpaceOnUse"
       id="clipPath14638">
      <g
         id="g14642"
         transform="translate(-591.5449,-463.9316)">
        <path
           d="M 0,612 H 792 V 0 H 0 Z"
           id="path14640" />
      </g>
    </clipPath>
    <clipPath
       clipPathUnits="userSpaceOnUse"
       id="clipPath14632">
      <g
         id="g14636"
         transform="translate(-591.5449,-469.2192)">
        <path
           d="M 0,612 H 792 V 0 H 0 Z"
           id="path14634" />
      </g>
    </clipPath>
    <clipPath
       clipPathUnits="userSpaceOnUse"
       id="clipPath14626">
      <g
         id="g14630"
         transform="translate(-591.5449,-467.5225)">
        <path
           d="M 0,612 H 792 V 0 H 0 Z"
           id="path14628" />
      </g>
    </clipPath>
    <clipPath
       clipPathUnits="userSpaceOnUse"
       id="clipPath14620">
      <g
         id="g14624"
         transform="translate(-591.5449,-465.374)">
        <path
           d="M 0,612 H 792 V 0 H 0 Z"
           id="path14622" />
      </g>
    </clipPath>
    <clipPath
       clipPathUnits="userSpaceOnUse"
       id="clipPath14614">
      <g
         id="g14618"
         transform="translate(-605.1875,-451.2485)">
        <path
           d="M 0,612 H 792 V 0 H 0 Z"
           id="path14616" />
      </g>
    </clipPath>
    <clipPath
       clipPathUnits="userSpaceOnUse"
       id="clipPath14608">
      <g
         id="g14612"
         transform="translate(-467.7539,-450.2085)">
        <path
           d="M 0,612 H 792 V 0 H 0 Z"
           id="path14610" />
      </g>
    </clipPath>
    <clipPath
       clipPathUnits="userSpaceOnUse"
       id="clipPath14602">
      <g
         id="g14606"
         transform="translate(-609.998,-451.1411)">
        <path
           d="M 0,612 H 792 V 0 H 0 Z"
           id="path14604" />
      </g>
    </clipPath>
    <clipPath
       clipPathUnits="userSpaceOnUse"
       id="clipPath14596">
      <g
         id="g14600"
         transform="translate(-676.541,-464.5278)">
        <path
           d="M 0,612 H 792 V 0 H 0 Z"
           id="path14598" />
      </g>
    </clipPath>
    <clipPath
       clipPathUnits="userSpaceOnUse"
       id="clipPath14590">
      <g
         id="g14594"
         transform="translate(-682.2861,-456.6958)">
        <path
           d="M 0,612 H 792 V 0 H 0 Z"
           id="path14592" />
      </g>
    </clipPath>
    <clipPath
       clipPathUnits="userSpaceOnUse"
       id="clipPath14584">
      <g
         id="g14588"
         transform="translate(-657.2031,-459.2656)">
        <path
           d="M 0,612 H 792 V 0 H 0 Z"
           id="path14586" />
      </g>
    </clipPath>
    <clipPath
       clipPathUnits="userSpaceOnUse"
       id="clipPath14578">
      <g
         id="g14582"
         transform="translate(-661.2744,-457.3975)">
        <path
           d="M 0,612 H 792 V 0 H 0 Z"
           id="path14580" />
      </g>
    </clipPath>
    <clipPath
       clipPathUnits="userSpaceOnUse"
       id="clipPath14572">
      <g
         id="g14576"
         transform="translate(-665.4697,-461.8818)">
        <path
           d="M 0,612 H 792 V 0 H 0 Z"
           id="path14574" />
      </g>
    </clipPath>
    <clipPath
       clipPathUnits="userSpaceOnUse"
       id="clipPath14566">
      <g
         id="g14570"
         transform="translate(-662.8584,-460.6255)">
        <path
           d="M 0,612 H 792 V 0 H 0 Z"
           id="path14568" />
      </g>
    </clipPath>
    <clipPath
       clipPathUnits="userSpaceOnUse"
       id="clipPath14560">
      <g
         id="g14564"
         transform="translate(-658.9238,-458.6006)">
        <path
           d="M 0,612 H 792 V 0 H 0 Z"
           id="path14562" />
      </g>
    </clipPath>
    <clipPath
       clipPathUnits="userSpaceOnUse"
       id="clipPath14554">
      <g
         id="g14558"
         transform="translate(-679.7031,-450.3242)">
        <path
           d="M 0,612 H 792 V 0 H 0 Z"
           id="path14556" />
      </g>
    </clipPath>
    <clipPath
       clipPathUnits="userSpaceOnUse"
       id="clipPath14548">
      <g
         id="g14552"
         transform="translate(-563.1406,-447.9097)">
        <path
           d="M 0,612 H 792 V 0 H 0 Z"
           id="path14550" />
      </g>
    </clipPath>
    <clipPath
       clipPathUnits="userSpaceOnUse"
       id="clipPath14542">
      <g
         id="g14546"
         transform="translate(-603.1357,-446.0864)">
        <path
           d="M 0,612 H 792 V 0 H 0 Z"
           id="path14544" />
      </g>
    </clipPath>
    <clipPath
       clipPathUnits="userSpaceOnUse"
       id="clipPath14536">
      <g
         id="g14540"
         transform="translate(-635.2715,-450.375)">
        <path
           d="M 0,612 H 792 V 0 H 0 Z"
           id="path14538" />
      </g>
    </clipPath>
    <clipPath
       clipPathUnits="userSpaceOnUse"
       id="clipPath14530">
      <g
         id="g14534"
         transform="translate(-621.2373,-447.5249)">
        <path
           d="M 0,612 H 792 V 0 H 0 Z"
           id="path14532" />
      </g>
    </clipPath>
    <clipPath
       clipPathUnits="userSpaceOnUse"
       id="clipPath14524">
      <g
         id="g14528"
         transform="translate(-616.4678,-445.7056)">
        <path
           d="M 0,612 H 792 V 0 H 0 Z"
           id="path14526" />
      </g>
    </clipPath>
    <clipPath
       clipPathUnits="userSpaceOnUse"
       id="clipPath14518">
      <g
         id="g14522"
         transform="translate(-606.0078,-446.4346)">
        <path
           d="M 0,612 H 792 V 0 H 0 Z"
           id="path14520" />
      </g>
    </clipPath>
    <clipPath
       clipPathUnits="userSpaceOnUse"
       id="clipPath14512">
      <g
         id="g14516"
         transform="translate(-538.3984,-450.3198)">
        <path
           d="M 0,612 H 792 V 0 H 0 Z"
           id="path14514" />
      </g>
    </clipPath>
    <clipPath
       clipPathUnits="userSpaceOnUse"
       id="clipPath14506">
      <g
         id="g14510"
         transform="translate(-525.0361,-450.0688)">
        <path
           d="M 0,612 H 792 V 0 H 0 Z"
           id="path14508" />
      </g>
    </clipPath>
    <clipPath
       clipPathUnits="userSpaceOnUse"
       id="clipPath14500">
      <g
         id="g14504"
         transform="translate(-606.0078,-447.1875)">
        <path
           d="M 0,612 H 792 V 0 H 0 Z"
           id="path14502" />
      </g>
    </clipPath>
    <clipPath
       clipPathUnits="userSpaceOnUse"
       id="clipPath14494">
      <g
         id="g14498"
         transform="translate(-523.4541,-448.3628)">
        <path
           d="M 0,612 H 792 V 0 H 0 Z"
           id="path14496" />
      </g>
    </clipPath>
    <clipPath
       clipPathUnits="userSpaceOnUse"
       id="clipPath14488">
      <g
         id="g14492"
         transform="translate(-618.377,-450.5527)">
        <path
           d="M 0,612 H 792 V 0 H 0 Z"
           id="path14490" />
      </g>
    </clipPath>
    <clipPath
       clipPathUnits="userSpaceOnUse"
       id="clipPath14482">
      <g
         id="g14486"
         transform="translate(-617.7676,-449.9009)">
        <path
           d="M 0,612 H 792 V 0 H 0 Z"
           id="path14484" />
      </g>
    </clipPath>
    <clipPath
       clipPathUnits="userSpaceOnUse"
       id="clipPath14476">
      <g
         id="g14480"
         transform="translate(-510.3193,-448.7383)">
        <path
           d="M 0,612 H 792 V 0 H 0 Z"
           id="path14478" />
      </g>
    </clipPath>
    <clipPath
       clipPathUnits="userSpaceOnUse"
       id="clipPath14470">
      <g
         id="g14474"
         transform="translate(-604.4355,-450.0176)">
        <path
           d="M 0,612 H 792 V 0 H 0 Z"
           id="path14472" />
      </g>
    </clipPath>
    <clipPath
       clipPathUnits="userSpaceOnUse"
       id="clipPath14464">
      <g
         id="g14468"
         transform="translate(-514.6426,-448.7954)">
        <path
           d="M 0,612 H 792 V 0 H 0 Z"
           id="path14466" />
      </g>
    </clipPath>
    <clipPath
       clipPathUnits="userSpaceOnUse"
       id="clipPath14458">
      <g
         id="g14462"
         transform="translate(-509.8525,-448.7515)">
        <path
           d="M 0,612 H 792 V 0 H 0 Z"
           id="path14460" />
      </g>
    </clipPath>
    <clipPath
       clipPathUnits="userSpaceOnUse"
       id="clipPath14452">
      <g
         id="g14456"
         transform="translate(-599.3818,-466.5942)">
        <path
           d="M 0,612 H 792 V 0 H 0 Z"
           id="path14454" />
      </g>
    </clipPath>
    <clipPath
       clipPathUnits="userSpaceOnUse"
       id="clipPath14446">
      <g
         id="g14450"
         transform="translate(-621.2373,-461.8477)">
        <path
           d="M 0,612 H 792 V 0 H 0 Z"
           id="path14448" />
      </g>
    </clipPath>
    <clipPath
       clipPathUnits="userSpaceOnUse"
       id="clipPath14440">
      <g
         id="g14444"
         transform="translate(-602.3975,-463.6211)">
        <path
           d="M 0,612 H 792 V 0 H 0 Z"
           id="path14442" />
      </g>
    </clipPath>
    <clipPath
       clipPathUnits="userSpaceOnUse"
       id="clipPath14434">
      <g
         id="g14438"
         transform="translate(-625.8408,-461.8477)">
        <path
           d="M 0,612 H 792 V 0 H 0 Z"
           id="path14436" />
      </g>
    </clipPath>
    <clipPath
       clipPathUnits="userSpaceOnUse"
       id="clipPath14428">
      <g
         id="g14432"
         transform="translate(-599.3818,-471.6157)">
        <path
           d="M 0,612 H 792 V 0 H 0 Z"
           id="path14430" />
      </g>
    </clipPath>
    <clipPath
       clipPathUnits="userSpaceOnUse"
       id="clipPath14422">
      <g
         id="g14426"
         transform="translate(-609.998,-451.1411)">
        <path
           d="M 0,612 H 792 V 0 H 0 Z"
           id="path14424" />
      </g>
    </clipPath>
    <clipPath
       clipPathUnits="userSpaceOnUse"
       id="clipPath14416">
      <g
         id="g14420"
         transform="translate(-625.2275,-450.9473)">
        <path
           d="M 0,612 H 792 V 0 H 0 Z"
           id="path14418" />
      </g>
    </clipPath>
    <clipPath
       clipPathUnits="userSpaceOnUse"
       id="clipPath14410">
      <g
         id="g14414"
         transform="translate(-524.4443,-449.4478)">
        <path
           d="M 0,612 H 792 V 0 H 0 Z"
           id="path14412" />
      </g>
    </clipPath>
    <clipPath
       clipPathUnits="userSpaceOnUse"
       id="clipPath14404">
      <g
         id="g14408"
         transform="translate(-497.1309,-451.7036)">
        <path
           d="M 0,612 H 792 V 0 H 0 Z"
           id="path14406" />
      </g>
    </clipPath>
    <clipPath
       clipPathUnits="userSpaceOnUse"
       id="clipPath14398">
      <g
         id="g14402"
         transform="translate(-483.7988,-451.5205)">
        <path
           d="M 0,612 H 792 V 0 H 0 Z"
           id="path14400" />
      </g>
    </clipPath>
    <clipPath
       clipPathUnits="userSpaceOnUse"
       id="clipPath14392">
      <g
         id="g14396"
         transform="translate(-511.1123,-449.2646)">
        <path
           d="M 0,612 H 792 V 0 H 0 Z"
           id="path14394" />
      </g>
    </clipPath>
    <clipPath
       clipPathUnits="userSpaceOnUse"
       id="clipPath14386">
      <g
         id="g14390"
         transform="translate(-602.3975,-451.2485)">
        <path
           d="M 0,612 H 792 V 0 H 0 Z"
           id="path14388" />
      </g>
    </clipPath>
    <clipPath
       clipPathUnits="userSpaceOnUse"
       id="clipPath14380">
      <g
         id="g14384"
         transform="translate(-604.4355,-446.6406)">
        <path
           d="M 0,612 H 792 V 0 H 0 Z"
           id="path14382" />
      </g>
    </clipPath>
    <clipPath
       clipPathUnits="userSpaceOnUse"
       id="clipPath14374">
      <g
         id="g14378"
         transform="translate(-564.4404,-447.1919)">
        <path
           d="M 0,612 H 792 V 0 H 0 Z"
           id="path14376" />
      </g>
    </clipPath>
    <clipPath
       clipPathUnits="userSpaceOnUse"
       id="clipPath14368">
      <g
         id="g14372"
         transform="translate(-618.5176,-451.1313)">
        <path
           d="M 0,612 H 792 V 0 H 0 Z"
           id="path14370" />
      </g>
    </clipPath>
    <clipPath
       clipPathUnits="userSpaceOnUse"
       id="clipPath14362">
      <g
         id="g14366"
         transform="translate(-617.7676,-447.7695)">
        <path
           d="M 0,612 H 792 V 0 H 0 Z"
           id="path14364" />
      </g>
    </clipPath>
    <clipPath
       clipPathUnits="userSpaceOnUse"
       id="clipPath14356">
      <g
         id="g14360"
         transform="translate(-577.126,-452.5127)">
        <path
           d="M 0,612 H 792 V 0 H 0 Z"
           id="path14358" />
      </g>
    </clipPath>
    <clipPath
       clipPathUnits="userSpaceOnUse"
       id="clipPath14350">
      <g
         id="g14354"
         transform="translate(-590.459,-452.5781)">
        <path
           d="M 0,612 H 792 V 0 H 0 Z"
           id="path14352" />
      </g>
    </clipPath>
    <clipPath
       clipPathUnits="userSpaceOnUse"
       id="clipPath14344">
      <g
         id="g14348"
         transform="translate(-629.0937,-450.4312)">
        <path
           d="M 0,612 H 792 V 0 H 0 Z"
           id="path14346" />
      </g>
    </clipPath>
  </defs>
  <g
     id="layer1"
     transform="translate(-17.518458,-114.64411)">
    <g
       id="g11287"
       transform="matrix(0.35277777,0,0,-0.35277777,102.42392,115.66007)"
       clip-path="url(#clipPath14662)">
      <path
         d="m 0,0 3.078,0.241 v 0.245 l -31.212,-0.874 11.845,-0.331 18.602,0.538 z"
         style="fill:#2aabe2;fill-opacity:1;fill-rule:nonzero;stroke:none"
         id="path11289" />
    </g>
    <g
       id="g11291"
       transform="matrix(0.35277777,0,0,-0.35277777,99.314358,116.12775)"
       clip-path="url(#clipPath14656)">
      <path
         d="m 0,0 -27.231,-0.614 9.163,-0.206 23.861,0.653 z"
         style="fill:#2aabe2;fill-opacity:1;fill-rule:nonzero;stroke:none"
         id="path11293" />
    </g>
    <g
       id="g11295"
       transform="matrix(0.35277777,0,0,-0.35277777,103.5098,116.79521)"
       clip-path="url(#clipPath14650)">
      <path
         d="m 0,0 -8.377,0.229 -9.646,-0.502 4.576,-0.239 L 0,-0.017 Z"
         style="fill:#2aabe2;fill-opacity:1;fill-rule:nonzero;stroke:none"
         id="path11297" />
    </g>
    <g
       id="g11299"
       transform="matrix(0.35277777,0,0,-0.35277777,103.5098,117.43204)"
       clip-path="url(#clipPath14644)">
      <path
         d="M 0,0 -18.018,0.664 -35.527,0.202 -6.707,-0.559 0,-0.355 Z"
         style="fill:#2aabe2;fill-opacity:1;fill-rule:nonzero;stroke:none"
         id="path11301" />
    </g>
    <g
       id="g11303"
       transform="matrix(0.35277777,0,0,-0.35277777,103.5098,118.38549)"
       clip-path="url(#clipPath14638)">
      <path
         d="M 0,0 -1.499,0.244 0,0.487 V 0.523 L -14.875,0.976 -18.504,0.798 0.002,-0.11 C 0.002,-0.104 0,-0.098 0,-0.091 Z"
         style="fill:#2aabe2;fill-opacity:1;fill-rule:nonzero;stroke:none"
         id="path11305" />
    </g>
    <g
       id="g11307"
       transform="matrix(0.35277777,0,0,-0.35277777,103.5098,116.52015)"
       clip-path="url(#clipPath14632)">
      <path
         d="M 0,0 -5.323,0.36 0,0.72 V 2.198 L -0.766,2.257 -19.367,1.719 -26.1,1.524 -11.893,1.112 -6.1,0.945 -29.961,0.292 -34.568,0.166 -8.377,-0.55 0,-0.78 Z"
         style="fill:#ec008c;fill-opacity:1;fill-rule:nonzero;stroke:none"
         id="path11309" />
    </g>
    <g
       id="g11311"
       transform="matrix(0.35277777,0,0,-0.35277777,103.5098,117.11871)"
       clip-path="url(#clipPath14626)">
      <path
         d="M 0,0 -1.25,0.228 0,0.456 V 0.9 L -13.447,0.405 -24.278,0.006 -18.018,-0.225 0,-0.888 Z"
         style="fill:#ec008c;fill-opacity:1;fill-rule:nonzero;stroke:none"
         id="path11313" />
    </g>
    <g
       id="g11315"
       transform="matrix(0.35277777,0,0,-0.35277777,103.5098,117.87665)"
       clip-path="url(#clipPath14620)">
      <path
         d="M 0,0 -3.91,0.298 0,0.595 v 0.31 L -6.707,0.701 -29.965,-0.007 -14.875,-0.466 0,-0.919 Z"
         style="fill:#ec008c;fill-opacity:1;fill-rule:nonzero;stroke:none"
         id="path11317" />
    </g>
    <g
       id="g11319"
       transform="matrix(0.35277777,0,0,-0.35277777,108.32261,122.85981)"
       clip-path="url(#clipPath14614)">
      <path
         d="M 0,0 C 0,-0.03 -0.011,-0.058 -0.013,-0.087 0.268,-0.088 0.543,-0.089 0.82,-0.09 V 0.981 L -0.557,1.108 C -0.221,0.854 0,0.454 0,0"
         style="fill:#652f8f;fill-opacity:1;fill-rule:nonzero;stroke:none"
         id="path11321" />
    </g>
    <g
       id="g11323"
       transform="matrix(0.35277777,0,0,-0.35277777,59.83909,123.2267)"
       clip-path="url(#clipPath14608)">
      <path
         d="m 0,0 14.759,0.458 c 0.212,0.501 0.708,0.854 1.286,0.854 0.765,0 1.384,-0.616 1.393,-1.378 2.375,0.033 4.8,0.066 7.27,0.1 l 3.29,0.225 c 0.079,0.695 0.663,1.236 1.379,1.236 0.766,0 1.386,-0.617 1.394,-1.38 1.535,0.02 3.084,0.04 4.644,0.061 l -3.158,0.157 9.155,0.455 c 0.202,0.52 0.705,0.891 1.297,0.891 0.77,0 1.395,-0.624 1.395,-1.393 3.483,0.043 7.004,0.085 10.55,0.126 -0.001,0.019 -0.008,0.036 -0.008,0.055 0,0.098 0.011,0.194 0.03,0.286 l -5.127,0.411 5.71,0.458 c 0.223,0.151 0.492,0.24 0.782,0.24 0.771,0 1.396,-0.625 1.396,-1.395 0,-0.008 -0.004,-0.015 -0.004,-0.023 3.508,0.04 7.033,0.079 10.558,0.116 -0.002,0.031 -0.012,0.059 -0.012,0.09 0,0.043 0.008,0.083 0.012,0.124 l -2.979,0.39 3.345,0.438 c 0.255,0.271 0.615,0.443 1.016,0.443 0.771,0 1.396,-0.624 1.396,-1.395 0,-0.021 -0.008,-0.04 -0.009,-0.061 3.352,0.034 6.699,0.067 10.028,0.098 l -8.377,0.394 9.111,0.428 c 0.246,0.397 0.682,0.665 1.184,0.665 0.771,0 1.395,-0.625 1.395,-1.395 0,-0.022 -0.008,-0.041 -0.009,-0.062 3.554,0.032 7.079,0.061 10.557,0.088 0,0.002 -0.001,0.004 -0.001,0.007 L 87.043,1.247 94.944,1.7 c 0.256,0.326 0.649,0.539 1.095,0.539 0.771,0 1.395,-0.625 1.395,-1.395 0,-0.006 -0.002,-0.012 -0.002,-0.018 3.235,0.024 6.423,0.044 9.552,0.062 l -5.725,0.359 6.953,0.436 c 0.25,0.374 0.676,0.621 1.16,0.621 0.771,0 1.396,-0.624 1.396,-1.395 0,0 -0.001,0 -0.001,0 2.171,0.011 4.308,0.02 6.407,0.028 l -0.784,0.061 4.988,0.384 c 0.176,0.571 0.7,0.988 1.327,0.988 0.771,0 1.396,-0.625 1.396,-1.395 0,-0.007 -0.003,-0.012 -0.003,-0.018 3.566,0.007 6.996,0.008 10.249,0.003 l 0.304,0.022 c -0.001,0.02 -0.007,0.038 -0.007,0.058 0,0.546 0.316,1.014 0.773,1.243 l -1.652,0.152 4.489,0.413 v 2.494 l -5.104,0.422 5.104,0.422 v 2.192 l -1.774,0.39 1.774,0.391 V 9.358 L 129.59,8.916 84.05,7.981 103.453,7.583 86.778,6.732 16.211,5.819 58.229,5.276 46.074,4.656 -77.066,3.658 12.303,2.934 -10.902,1.75 -119.964,0.832 -3.723,-0.148 1.47,-0.296 c 1.779,0.026 3.611,0.053 5.487,0.08 z"
         style="fill:#652f8f;fill-opacity:1;fill-rule:nonzero;stroke:none"
         id="path11325" />
    </g>
    <g
       id="g11327"
       transform="matrix(0.35277777,0,0,-0.35277777,110.01965,122.8977)"
       clip-path="url(#clipPath14602)">
      <path
         d="m 0,0 c 1.578,-0.009 3.097,-0.02 4.557,-0.033 l 1.179,0.089 c 0.035,0.739 0.641,1.329 1.389,1.329 0.771,0 1.395,-0.624 1.395,-1.395 0,-0.023 -0.008,-0.043 -0.009,-0.066 0.943,-0.012 1.85,-0.025 2.728,-0.039 V 2.654 L 5.154,3.058 11.239,3.461 V 5.81 L 8.03,6.154 11.239,6.498 V 8.969 L 9.97,9.137 0,8.628 Z"
         style="fill:#652f8f;fill-opacity:1;fill-rule:nonzero;stroke:none"
         id="path11329" />
    </g>
    <g
       id="g11331"
       transform="matrix(0.35277777,0,0,-0.35277777,133.49454,118.17517)"
       clip-path="url(#clipPath14596)">
      <path
         d="m 0,0 c 0,0 -0.242,-0.802 -1.158,-1.458 0.226,-0.202 0.471,-0.4 0.731,-0.594 C -0.139,-1.528 0.086,-0.844 0,0"
         style="fill:#000000;fill-opacity:1;fill-rule:nonzero;stroke:none"
         id="path11333" />
    </g>
    <g
       id="g11335"
       transform="matrix(0.35277777,0,0,-0.35277777,135.52128,120.93812)"
       clip-path="url(#clipPath14590)">
      <path
         d="m 0,0 c -0.746,0 -1.351,-0.604 -1.351,-1.35 0,-0.746 0.605,-1.35 1.351,-1.35 0.535,0 0.996,0.312 1.214,0.764 h 4.439 l 0.464,1.172 H 1.214 C 0.996,-0.312 0.535,0 0,0"
         style="fill:#000000;fill-opacity:1;fill-rule:nonzero;stroke:none"
         id="path11337" />
    </g>
    <g
       id="g11339"
       transform="matrix(0.35277777,0,0,-0.35277777,126.67256,120.03156)"
       clip-path="url(#clipPath14584)">
      <path
         d="M 0,0 1.084,0.258 C 1.088,0.374 1.099,0.504 1.108,0.624 1.14,0.886 1.177,1.148 1.239,1.405 1.355,1.92 1.539,2.42 1.782,2.89 2.022,3.36 2.329,3.795 2.679,4.19 3.027,4.586 3.43,4.935 3.866,5.231 4.304,5.525 4.778,5.763 5.273,5.943 5.771,6.12 6.289,6.23 6.812,6.28 7.075,6.3 7.334,6.312 7.6,6.301 L 7.782,6.293 7.985,6.276 C 8.123,6.267 8.249,6.244 8.38,6.226 8.896,6.144 9.401,5.992 9.881,5.787 c 0.478,-0.209 0.926,-0.483 1.336,-0.8 0.406,-0.322 0.776,-0.69 1.092,-1.097 0.044,-0.058 0.087,-0.116 0.129,-0.175 0.041,0.009 0.085,0.024 0.137,0.038 0.027,0.008 0.055,0.016 0.084,0.024 0.029,0.01 0.056,0.022 0.086,0.034 0.059,0.024 0.126,0.047 0.188,0.083 0.063,0.033 0.133,0.066 0.197,0.109 0.066,0.041 0.135,0.085 0.198,0.136 0.068,0.048 0.129,0.102 0.191,0.157 0.064,0.054 0.118,0.114 0.176,0.171 0.053,0.059 0.108,0.117 0.155,0.176 0.046,0.058 0.091,0.114 0.129,0.169 0.157,0.216 0.235,0.382 0.235,0.382 0,0 0.015,-0.183 -0.017,-0.464 C 14.19,4.66 14.18,4.584 14.166,4.503 14.153,4.421 14.133,4.337 14.113,4.248 14.089,4.161 14.067,4.067 14.034,3.976 14.004,3.883 13.971,3.789 13.929,3.696 13.891,3.602 13.845,3.511 13.797,3.421 13.751,3.329 13.695,3.245 13.642,3.161 13.591,3.075 13.529,3 13.473,2.926 13.444,2.889 13.417,2.853 13.389,2.818 13.358,2.786 13.33,2.754 13.302,2.725 13.245,2.665 13.194,2.607 13.145,2.561 13.13,2.548 13.116,2.536 13.103,2.524 c 0.191,-0.461 0.331,-0.941 0.403,-1.43 0.077,-0.5 0.092,-1.017 0.038,-1.509 -0.054,-0.51 -0.166,-0.995 -0.337,-1.466 -0.178,-0.466 -0.411,-0.907 -0.691,-1.312 -0.255,-0.357 -0.549,-0.682 -0.872,-0.971 0.445,-0.142 0.89,-0.288 1.334,-0.435 -0.608,0.118 -1.216,0.238 -1.822,0.366 l -0.908,0.19 C 9.944,-3.981 9.643,-3.914 9.34,-3.849 L 7.527,-3.452 5.718,-3.041 4.812,-2.835 3.91,-2.622 2.105,-2.194 C 1.503,-2.053 0.901,-1.908 0.302,-1.76 l -1.801,0.444 -1.951,0.48 1.965,0.476 z m 31.31,-0.764 c -0.563,0.952 -2.475,1.177 -4.5,1.415 -1.437,0.169 -2.923,0.344 -4.329,0.787 -1.556,0.492 -2.674,1.104 -3.57,1.772 -0.26,0.194 -0.505,0.392 -0.731,0.594 -0.647,0.58 -1.177,1.185 -1.696,1.783 -1.237,1.427 -2.515,2.902 -5.587,4.192 -1.998,0.839 -5.169,1 -8.277,0.42 C -0.6,9.599 -3.365,8.318 -5.271,6.578 L -8.963,6.074 -6.146,5.688 C -6.543,5.251 -6.909,4.808 -7.242,4.357 L -18.107,3.58 -8.225,2.872 C -8.297,2.744 -8.358,2.611 -8.427,2.482 L -31.976,1.281 v -9.599 c 0.647,-0.015 1.261,-0.032 1.854,-0.049 l 2.046,0.23 c 0.18,0.563 0.7,0.974 1.322,0.974 0.771,0 1.395,-0.624 1.396,-1.394 1.681,-0.094 2.846,-0.205 3.426,-0.334 4.948,-1.099 7.414,-3.509 8.638,-5.453 l 9.104,-0.26 c 3.044,-1.398 6.662,-1.466 9.021,-0.749 4.538,1.38 5.788,2.609 12.47,2.533 5.525,-0.063 7.378,2.795 7.951,4.175 -1.928,-0.83 -4.037,-1.241 -6.155,-1.252 -1.182,0.009 -2.367,0.178 -3.503,0.505 -1.142,0.324 -2.198,0.904 -3.121,1.604 1.078,-0.451 2.15,-0.819 3.262,-1.036 1.113,-0.198 2.235,-0.328 3.367,-0.323 1.131,-0.009 2.264,0.074 3.398,0.206 1.103,0.143 2.21,0.313 3.317,0.552 2.333,0.79 4.057,2.117 4.919,3.883 h -4.439 c -0.218,-0.452 -0.679,-0.764 -1.214,-0.764 -0.746,0 -1.351,0.604 -1.351,1.35 0,0.746 0.605,1.35 1.351,1.35 0.535,0 0.996,-0.312 1.214,-0.763 H 31.2 c 0.385,1.174 0.423,2.037 0.11,2.569"
         style="fill:#652f8f;fill-opacity:1;fill-rule:nonzero;stroke:none"
         id="path11341" />
    </g>
    <g
       id="g11343"
       transform="matrix(0.35277777,0,0,-0.35277777,128.10882,120.69058)"
       clip-path="url(#clipPath14578)">
      <path
         d="m 0,0 c -0.006,0.092 -0.01,0.185 -0.01,0.279 0,1.365 0.651,2.578 1.659,3.346 C 1.607,3.5 1.584,3.367 1.584,3.228 1.584,2.755 1.846,2.344 2.231,2.129 2.274,2.105 2.32,2.083 2.368,2.064 2.373,2.062 2.378,2.061 2.384,2.058 2.423,2.043 2.463,2.03 2.504,2.019 2.516,2.015 2.529,2.012 2.542,2.008 2.577,2 2.613,1.993 2.65,1.987 2.664,1.985 2.678,1.982 2.691,1.981 2.74,1.975 2.79,1.971 2.841,1.971 2.882,1.971 2.923,1.974 2.963,1.977 2.977,1.979 2.99,1.981 3.004,1.983 3.03,1.986 3.056,1.99 3.082,1.995 3.099,1.998 3.114,2.002 3.13,2.006 3.152,2.011 3.175,2.017 3.196,2.023 3.214,2.028 3.23,2.034 3.247,2.04 3.267,2.046 3.286,2.053 3.306,2.062 3.324,2.068 3.341,2.076 3.358,2.083 3.376,2.092 3.393,2.1 3.41,2.108 3.428,2.118 3.446,2.127 3.464,2.137 3.479,2.146 3.492,2.155 3.507,2.163 3.525,2.175 3.544,2.187 3.563,2.2 c 0.01,0.008 0.021,0.016 0.032,0.024 0.02,0.015 0.04,0.03 0.059,0.047 0.005,0.004 0.01,0.009 0.016,0.014 0.157,0.139 0.28,0.317 0.352,0.52 10e-4,10e-4 10e-4,10e-4 10e-4,0.002 0.013,0.034 0.023,0.068 0.033,0.104 v 0.003 c 0.009,0.035 0.017,0.071 0.023,0.107 0.011,0.068 0.019,0.136 0.019,0.207 0,0.526 -0.325,0.976 -0.784,1.163 0.285,0.061 0.58,0.093 0.881,0.093 2.324,0 4.206,-1.882 4.206,-4.205 0,-0.965 -0.326,-1.852 -0.872,-2.561 0.007,-0.002 0.014,-0.004 0.021,-0.007 0.283,0.331 0.534,0.685 0.74,1.06 0.23,0.419 0.406,0.863 0.527,1.318 C 8.938,0.542 9.004,1.016 9.012,1.472 9.014,1.584 9.009,1.719 9.008,1.826 8.997,1.941 8.994,2.058 8.979,2.172 8.965,2.288 8.955,2.402 8.934,2.517 L 8.905,2.687 8.869,2.856 C 8.771,3.306 8.609,3.739 8.403,4.146 8.354,4.25 8.294,4.347 8.24,4.447 8.179,4.543 8.123,4.642 8.057,4.735 7.931,4.924 7.792,5.104 7.646,5.277 7.352,5.622 7.013,5.926 6.647,6.188 6.278,6.445 5.881,6.66 5.464,6.821 5.047,6.982 4.613,7.097 4.172,7.151 4.062,7.161 3.948,7.178 3.844,7.181 L 3.686,7.191 3.504,7.194 C 3.286,7.198 3.061,7.181 2.842,7.16 2.4,7.107 1.969,7 1.555,6.848 1.143,6.69 0.748,6.485 0.386,6.233 0.026,5.979 -0.312,5.69 -0.601,5.356 -0.891,5.025 -1.144,4.66 -1.343,4.268 -1.547,3.878 -1.703,3.463 -1.802,3.034 -1.855,2.82 -1.887,2.602 -1.914,2.383 L -1.928,2.226 C -1.932,2.171 -1.938,2.126 -1.939,2.062 L -1.945,1.881 -1.947,1.835 V 1.816 1.815 1.805 L -1.945,1.723 -1.937,1.295 -2.351,1.203 -3.399,0.971 c 0.55,-0.154 1.1,-0.309 1.65,-0.469 z"
         style="fill:#ffffff;fill-opacity:1;fill-rule:nonzero;stroke:none"
         id="path11345" />
    </g>
    <g
       id="g11347"
       transform="matrix(0.35277777,0,0,-0.35277777,129.58883,119.10862)"
       clip-path="url(#clipPath14572)">
      <path
         d="m 0,0 c -0.302,0 -0.597,-0.033 -0.881,-0.093 0.459,-0.187 0.783,-0.637 0.783,-1.163 0,-0.071 -0.007,-0.14 -0.018,-0.207 v 0.001 c 0.065,0.004 0.13,0.007 0.196,0.007 1.53,0 2.771,-1.24 2.771,-2.771 0,-0.832 -0.368,-1.578 -0.949,-2.086 0.053,-0.017 0.105,-0.032 0.158,-0.049 l 0.884,-0.281 c 0.13,-0.04 0.26,-0.083 0.39,-0.124 0.546,0.709 0.872,1.596 0.872,2.56 C 4.206,-1.883 2.323,0 0,0"
         style="fill:#2aabe2;fill-opacity:1;fill-rule:nonzero;stroke:none"
         id="path11349" />
    </g>
    <g
       id="g11351"
       transform="matrix(0.35277777,0,0,-0.35277777,128.66762,119.55181)"
       clip-path="url(#clipPath14566)">
      <path
         d="m 0,0 c 0,0.139 0.023,0.272 0.065,0.397 -1.008,-0.768 -1.659,-1.981 -1.659,-3.346 0,-0.094 0.004,-0.187 0.01,-0.279 l 0.033,-0.009 0.892,-0.257 0.676,-0.201 c -0.063,0.232 -0.097,0.475 -0.097,0.726 0,0.72 0.275,1.378 0.727,1.87 C 0.262,-0.884 0,-0.473 0,0"
         style="fill:#2aabe2;fill-opacity:1;fill-rule:nonzero;stroke:none"
         id="path11353" />
    </g>
    <g
       id="g11355"
       transform="matrix(0.35277777,0,0,-0.35277777,127.27958,120.26615)"
       clip-path="url(#clipPath14560)">
      <path
         d="M 0,0 0.413,0.092 0.405,0.52 0.403,0.602 v 0.01 0.001 0.019 L 0.405,0.678 0.411,0.859 C 0.412,0.923 0.419,0.968 0.423,1.022 L 0.437,1.18 C 0.464,1.398 0.495,1.617 0.549,1.831 0.647,2.26 0.804,2.675 1.008,3.065 1.207,3.457 1.46,3.822 1.75,4.153 2.039,4.487 2.377,4.775 2.736,5.03 3.099,5.282 3.493,5.487 3.905,5.645 4.319,5.796 4.751,5.904 5.192,5.957 5.411,5.978 5.637,5.995 5.854,5.991 L 6.036,5.988 6.194,5.978 C 6.299,5.975 6.412,5.958 6.522,5.948 6.964,5.894 7.397,5.779 7.814,5.618 8.231,5.457 8.629,5.242 8.998,4.985 9.363,4.723 9.702,4.418 9.997,4.074 10.143,3.901 10.281,3.721 10.407,3.532 10.474,3.439 10.529,3.34 10.591,3.244 10.645,3.144 10.705,3.046 10.754,2.943 10.96,2.536 11.121,2.103 11.22,1.653 L 11.256,1.484 11.284,1.313 C 11.306,1.199 11.315,1.084 11.33,0.969 11.345,0.854 11.348,0.738 11.358,0.623 11.359,0.516 11.364,0.381 11.362,0.269 11.354,-0.187 11.289,-0.661 11.168,-1.114 11.047,-1.569 10.87,-2.013 10.641,-2.432 10.435,-2.808 10.184,-3.161 9.9,-3.492 9.894,-3.489 9.887,-3.487 9.88,-3.485 9.75,-3.443 9.62,-3.401 9.49,-3.36 l -0.885,0.28 c -0.052,0.017 -0.104,0.033 -0.157,0.049 0.581,0.508 0.948,1.254 0.948,2.087 0,1.53 -1.24,2.771 -2.77,2.771 C 6.56,1.827 6.495,1.824 6.43,1.819 V 1.818 C 6.424,1.782 6.416,1.746 6.406,1.711 V 1.708 C 6.396,1.672 6.387,1.638 6.374,1.604 6.374,1.603 6.374,1.603 6.373,1.602 6.301,1.399 6.178,1.221 6.021,1.082 6.015,1.077 6.01,1.072 6.005,1.068 5.985,1.051 5.966,1.036 5.945,1.021 5.935,1.013 5.924,1.005 5.913,0.997 5.895,0.984 5.876,0.972 5.857,0.96 5.843,0.952 5.829,0.942 5.814,0.934 5.797,0.924 5.778,0.915 5.761,0.905 5.743,0.896 5.727,0.889 5.709,0.88 5.691,0.873 5.675,0.865 5.656,0.858 5.637,0.85 5.617,0.843 5.598,0.836 5.581,0.831 5.564,0.825 5.547,0.82 5.525,0.813 5.503,0.808 5.48,0.803 5.465,0.799 5.449,0.795 5.433,0.792 5.406,0.787 5.381,0.783 5.354,0.78 5.341,0.778 5.327,0.775 5.313,0.774 5.273,0.771 5.232,0.768 5.191,0.768 c -0.05,0 -0.1,0.004 -0.149,0.01 C 5.028,0.779 5.015,0.782 5.001,0.784 4.964,0.79 4.928,0.796 4.893,0.805 4.88,0.809 4.866,0.812 4.854,0.815 4.813,0.827 4.773,0.84 4.734,0.855 4.729,0.857 4.724,0.859 4.719,0.861 4.671,0.88 4.625,0.902 4.582,0.926 4.13,0.434 3.854,-0.224 3.854,-0.944 c 0,-0.251 0.035,-0.494 0.097,-0.726 l -0.676,0.201 -0.891,0.257 -0.033,0.009 -1.749,0.502 c -0.55,0.159 -1.1,0.315 -1.651,0.469 z m -3.22,-0.651 1.801,-0.444 c 0.6,-0.148 1.201,-0.293 1.804,-0.434 l 1.804,-0.428 0.903,-0.213 0.905,-0.205 1.81,-0.412 1.812,-0.397 c 0.303,-0.065 0.605,-0.132 0.908,-0.194 l 0.909,-0.19 c 0.605,-0.128 1.213,-0.248 1.821,-0.366 -0.444,0.147 -0.889,0.293 -1.334,0.435 0.323,0.289 0.617,0.614 0.872,0.971 0.28,0.405 0.514,0.846 0.691,1.312 0.171,0.471 0.284,0.956 0.337,1.466 0.054,0.492 0.039,1.009 -0.038,1.509 -0.072,0.49 -0.212,0.97 -0.403,1.43 0.014,0.012 0.027,0.024 0.042,0.037 0.05,0.046 0.1,0.104 0.157,0.164 0.028,0.029 0.057,0.061 0.087,0.093 0.028,0.035 0.056,0.071 0.084,0.108 0.057,0.074 0.118,0.149 0.169,0.235 0.054,0.084 0.109,0.168 0.155,0.26 0.048,0.09 0.094,0.181 0.132,0.275 0.042,0.093 0.075,0.187 0.105,0.28 0.034,0.091 0.055,0.185 0.08,0.272 0.019,0.089 0.04,0.173 0.052,0.255 0.014,0.081 0.025,0.157 0.032,0.228 0.031,0.28 0.016,0.463 0.016,0.463 0,0 -0.078,-0.166 -0.235,-0.382 C 12.221,5.422 12.176,5.366 12.129,5.308 12.082,5.249 12.027,5.191 11.975,5.132 11.916,5.075 11.862,5.015 11.798,4.961 11.736,4.906 11.675,4.852 11.607,4.804 11.544,4.753 11.476,4.709 11.409,4.668 11.346,4.625 11.275,4.592 11.212,4.559 11.15,4.523 11.083,4.5 11.024,4.476 10.994,4.464 10.967,4.452 10.938,4.442 10.909,4.434 10.881,4.426 10.854,4.418 10.803,4.404 10.759,4.389 10.717,4.38 10.675,4.439 10.632,4.497 10.588,4.555 10.272,4.962 9.902,5.33 9.496,5.652 9.086,5.969 8.639,6.243 8.16,6.452 7.681,6.657 7.176,6.809 6.659,6.891 6.528,6.909 6.402,6.932 6.265,6.941 L 6.062,6.958 5.879,6.966 C 5.613,6.977 5.354,6.965 5.092,6.945 4.568,6.895 4.05,6.785 3.553,6.608 3.058,6.428 2.583,6.19 2.146,5.896 1.709,5.6 1.307,5.251 0.958,4.855 0.608,4.46 0.302,4.025 0.062,3.555 -0.182,3.085 -0.365,2.585 -0.481,2.07 -0.544,1.813 -0.581,1.551 -0.612,1.289 -0.622,1.169 -0.633,1.039 -0.637,0.923 L -1.721,0.665 -3.206,0.305 -5.171,-0.171 Z"
         style="fill:#000000;fill-opacity:1;fill-rule:nonzero;stroke:none"
         id="path11357" />
    </g>
    <g
       id="g11359"
       transform="matrix(0.35277777,0,0,-0.35277777,134.61006,123.18588)"
       clip-path="url(#clipPath14554)">
      <path
         d="m 0,0 c -1.134,-0.132 -2.267,-0.214 -3.398,-0.206 -1.132,-0.004 -2.254,0.125 -3.367,0.324 -1.112,0.216 -2.184,0.584 -3.262,1.035 0.923,-0.7 1.979,-1.28 3.121,-1.603 1.136,-0.328 2.321,-0.497 3.503,-0.506 2.118,0.011 4.227,0.422 6.155,1.253 C 2.969,0.39 3.193,0.464 3.405,0.569 3.376,0.562 3.347,0.559 3.317,0.552 2.21,0.313 1.103,0.143 0,0"
         style="fill:#000000;fill-opacity:1;fill-rule:nonzero;stroke:none"
         id="path11361" />
    </g>
    <g
       id="g11363"
       transform="matrix(0.35277777,0,0,-0.35277777,93.489397,124.03766)"
       clip-path="url(#clipPath14548)">
      <path
         d="M 0,0 -2.109,0.47 0,0.939 V 1.335 L -6.183,1.8 -0.387,2.236 C -0.594,2.47 -0.728,2.768 -0.737,3.104 -4.216,3.077 -7.74,3.048 -11.295,3.016 -11.317,2.509 -11.608,2.074 -12.032,1.85 v -2.187 l -1.3,0.037 V 1.641 L -25.166,1.863 C -25.229,1.813 -25.292,1.76 -25.364,1.722 V 0.044 l -1.3,0.037 v 1.642 c -0.089,0.047 -0.167,0.109 -0.243,0.173 l -11.221,0.21 C -38.26,1.867 -38.454,1.667 -38.696,1.538 V 0.425 L 0,-0.681 Z"
         style="fill:#ec008c;fill-opacity:1;fill-rule:nonzero;stroke:none"
         id="path11365" />
    </g>
    <g
       id="g11367"
       transform="matrix(0.35277777,0,0,-0.35277777,107.59878,124.68088)"
       clip-path="url(#clipPath14542)">
      <path
         d="M 0,0 V 0.409 L -7.52,0.88 0,1.351 V 1.794 L -3.113,2.21 0,2.626 V 3.375 3.938 C -0.157,4.023 -0.288,4.144 -0.403,4.28 l -5.786,0.424 5.154,0.378 C -4.288,5.087 -7.718,5.086 -11.284,5.079 -11.291,4.55 -11.593,4.097 -12.032,3.866 V 0.344 l -1.3,0.037 v 0.637 l -4.58,0.444 4.58,0.444 v 0.658 l -1.836,0.394 1.836,0.395 v 0.519 c -0.335,0.18 -0.587,0.491 -0.689,0.864 l -4.187,0.323 c -2.099,-0.008 -4.236,-0.017 -6.407,-0.028 0,-0.536 -0.306,-0.996 -0.749,-1.229 V 0.725 l -1.3,0.037 v 0.981 l -6.129,0.467 6.129,0.467 v 0.731 l -3.552,0.465 3.047,0.398 c -0.131,0.196 -0.208,0.427 -0.224,0.676 L -28.397,5.01 C -31.526,4.992 -34.715,4.972 -37.95,4.948 -37.957,4.42 -38.258,3.968 -38.695,3.737 V 1.105 l -1.144,0.033 40.971,-1.17 z"
         style="fill:#ec008c;fill-opacity:1;fill-rule:nonzero;stroke:none"
         id="path11369" />
    </g>
    <g
       id="g11371"
       transform="matrix(0.35277777,0,0,-0.35277777,118.93557,123.16796)"
       clip-path="url(#clipPath14536)">
      <path
         d="M 0,0 C -0.58,0.128 -1.745,0.24 -3.427,0.334 V 0.333 c 0,-0.535 -0.303,-0.994 -0.745,-1.228 v -0.5 -3.692 l -1.3,0.037 v 1.462 l -2.786,0.405 2.786,0.405 v 1.561 l -2.342,0.322 1.992,0.273 c -0.179,0.185 -0.302,0.417 -0.356,0.678 l -3.078,0.347 1.066,0.12 c -0.593,0.018 -1.207,0.034 -1.854,0.049 V -4.92 L 8.638,-5.454 C 7.414,-3.509 4.947,-1.1 0,0"
         style="fill:#ec008c;fill-opacity:1;fill-rule:nonzero;stroke:none"
         id="path11373" />
    </g>
    <g
       id="g11375"
       transform="matrix(0.35277777,0,0,-0.35277777,113.98462,124.17341)"
       clip-path="url(#clipPath14530)">
      <path
         d="M 0,0 -3.47,0.245 V -1.856 L 0,-1.956 Z"
         style="fill:#ec008c;fill-opacity:1;fill-rule:nonzero;stroke:none"
         id="path11377" />
    </g>
    <g
       id="g11379"
       transform="matrix(0.35277777,0,0,-0.35277777,112.30205,124.81522)"
       clip-path="url(#clipPath14524)">
      <path
         d="M 0,0 V 0.6 L -2.396,1.011 0,1.423 V 2.156 L -1.315,2.248 0,2.341 V 2.654 L -4.059,3.09 0,3.525 v 0.677 c -0.203,0.109 -0.373,0.269 -0.501,0.459 l -5.636,0.424 4.224,0.317 C -3.373,5.416 -4.892,5.426 -6.47,5.436 V 0.185 l 6.859,-0.196 z"
         style="fill:#ec008c;fill-opacity:1;fill-rule:nonzero;stroke:none"
         id="path11381" />
    </g>
    <g
       id="g11383"
       transform="matrix(0.35277777,0,0,-0.35277777,108.61199,124.55805)"
       clip-path="url(#clipPath14518)">
      <path
         d="M 0,0 -1.572,0.206 V -0.385 L 0,-0.43 Z"
         style="fill:#ec008c;fill-opacity:1;fill-rule:nonzero;stroke:none"
         id="path11385" />
    </g>
    <g
       id="g11387"
       transform="matrix(0.35277777,0,0,-0.35277777,84.760899,123.18744)"
       clip-path="url(#clipPath14512)">
      <path
         d="m 0,0 10.757,0.202 c -0.04,0.11 -0.064,0.227 -0.074,0.348 L 10.144,0.576 C 6.814,0.545 3.468,0.512 0.115,0.478 0.107,0.307 0.064,0.149 0,0"
         style="fill:#ec008c;fill-opacity:1;fill-rule:nonzero;stroke:none"
         id="path11389" />
    </g>
    <g
       id="g11391"
       transform="matrix(0.35277777,0,0,-0.35277777,80.046977,123.27598)"
       clip-path="url(#clipPath14506)">
      <path
         d="M 0,0 10.841,0.204 C 10.768,0.356 10.721,0.521 10.709,0.7 7.184,0.663 3.659,0.624 0.15,0.583 0.147,0.372 0.089,0.178 0,0"
         style="fill:#ec008c;fill-opacity:1;fill-rule:nonzero;stroke:none"
         id="path11393" />
    </g>
    <g
       id="g11395"
       transform="matrix(0.35277777,0,0,-0.35277777,108.61199,124.29244)"
       clip-path="url(#clipPath14500)">
      <path
         d="m 0,0 v 1.897 l -1.572,0.207 v -2.31 z"
         style="fill:#ec008c;fill-opacity:1;fill-rule:nonzero;stroke:none"
         id="path11397" />
    </g>
    <g
       id="g11399"
       transform="matrix(0.35277777,0,0,-0.35277777,79.488882,123.87782)"
       clip-path="url(#clipPath14494)">
      <path
         d="M 0,0 V 0 L 0.691,-0.02 Z"
         style="fill:#ec008c;fill-opacity:1;fill-rule:nonzero;stroke:none"
         id="path11401" />
    </g>
    <g
       id="g11403"
       transform="matrix(0.35277777,0,0,-0.35277777,112.97557,123.10527)"
       clip-path="url(#clipPath14488)">
      <path
         d="M 0,0 2.86,0.291 V 0.473 C 1.982,0.487 1.075,0.5 0.132,0.513 0.123,0.329 0.074,0.158 0,0"
         style="fill:#ec008c;fill-opacity:1;fill-rule:nonzero;stroke:none"
         id="path11405" />
    </g>
    <g
       id="g11407"
       transform="matrix(0.35277777,0,0,-0.35277777,112.76059,123.33521)"
       clip-path="url(#clipPath14482)">
      <path
         d="m 0,0 v -1.763 l 3.47,0.245 V 0.238 L 0.556,0.534 C 0.423,0.309 0.232,0.122 0,0"
         style="fill:#ec008c;fill-opacity:1;fill-rule:nonzero;stroke:none"
         id="path11409" />
    </g>
    <g
       id="g11411"
       transform="matrix(0.35277777,0,0,-0.35277777,74.855217,123.74535)"
       clip-path="url(#clipPath14476)">
      <path
         d="M 0,0 V 0 L 0.689,-0.02 Z"
         style="fill:#ec008c;fill-opacity:1;fill-rule:nonzero;stroke:none"
         id="path11413" />
    </g>
    <g
       id="g11415"
       transform="matrix(0.35277777,0,0,-0.35277777,108.05732,123.29404)"
       clip-path="url(#clipPath14470)">
      <path
         d="M 0,0 V -0.386 L 1.572,-0.18 V 1.141 C 1.295,1.142 1.02,1.143 0.739,1.144 0.707,0.646 0.42,0.22 0,0"
         style="fill:#ec008c;fill-opacity:1;fill-rule:nonzero;stroke:none"
         id="path11417" />
    </g>
    <g
       id="g11419"
       transform="matrix(0.35277777,0,0,-0.35277777,76.380381,123.72521)"
       clip-path="url(#clipPath14464)">
      <path
         d="M 0,0 8.502,0.482 V 0.653 C 8.077,0.879 7.786,1.315 7.766,1.825 4.22,1.784 0.698,1.742 -2.784,1.699 V 1.697 c 0,-0.535 -0.305,-0.993 -0.746,-1.228 V -0.08 l 9.94,-0.284 z"
         style="fill:#ec008c;fill-opacity:1;fill-rule:nonzero;stroke:none"
         id="path11421" />
    </g>
    <g
       id="g11423"
       transform="matrix(0.35277777,0,0,-0.35277777,74.69054,123.7407)"
       clip-path="url(#clipPath14458)">
      <path
         d="m 0,0 -0.04,0.001 v 0.002 l -5.23,0.456 4.805,0.419 c -0.111,0.136 -0.203,0.287 -0.256,0.458 l -5.963,0.297 c -1.559,-0.021 -3.109,-0.041 -4.644,-0.061 0,-0.005 0.002,-0.01 0.002,-0.015 0,-0.525 -0.296,-0.975 -0.726,-1.213 l -1.395,0.04 c -0.191,0.118 -0.35,0.28 -0.467,0.469 l -6.403,0.438 2.926,0.2 c -2.469,-0.033 -4.894,-0.067 -7.269,-0.1 0,-0.006 0.002,-0.011 0.002,-0.017 0,-0.243 -0.07,-0.467 -0.18,-0.664 l -2.463,0.07 c -0.034,0.071 -0.058,0.145 -0.083,0.221 l -7.758,0.24 C -37.018,1.214 -38.85,1.187 -40.629,1.161 L 0.001,0 Z"
         style="fill:#ec008c;fill-opacity:1;fill-rule:nonzero;stroke:none"
         id="path11425" />
    </g>
    <g
       id="g11427"
       transform="matrix(0.35277777,0,0,-0.35277777,106.27449,117.44619)"
       clip-path="url(#clipPath14452)">
      <path
         d="M 0,0 -2.519,0.13 0,0.261 v 4.76 C 0,5.102 0.017,5.178 0.023,5.257 -0.995,6.351 -2.443,7.04 -4.056,7.04 h -2.417 c -0.754,0 -1.364,-0.611 -1.364,-1.365 V 5.549 5.304 L -10.915,5.063 -8.603,4.882 -7.837,4.823 V 3.345 l -5.323,-0.36 5.323,-0.36 V 1.845 1.828 1.384 l -1.25,-0.228 1.25,-0.228 V 0.04 -0.315 -0.625 l -3.91,-0.297 3.91,-0.298 v -0.92 -0.035 l -1.499,-0.244 1.499,-0.244 v -0.091 c 0,-0.006 0.002,-0.012 0.002,-0.018 0.01,-0.745 0.615,-1.346 1.362,-1.346 h 2.417 c 1.613,0 3.061,0.688 4.079,1.782 C 0.017,-2.257 0,-2.181 0,-2.1 Z"
         style="fill:#58595b;fill-opacity:1;fill-rule:nonzero;stroke:none"
         id="path11429" />
    </g>
    <g
       id="g11431"
       transform="matrix(0.35277777,0,0,-0.35277777,113.98462,119.12065)"
       clip-path="url(#clipPath14446)">
      <path
         d="M 0,0 V 1.369 L -8.412,1.773 0,2.177 V 4.551 L -2.72,4.877 0,5.203 V 7.558 L -6.085,7.961 0,8.365 v 2.209 L -2.72,10.863 0,11.151 v 1.264 H -11.239 V 0 Z"
         style="fill:#939598;fill-opacity:1;fill-rule:nonzero;stroke:none"
         id="path11433" />
    </g>
    <g
       id="g11435"
       transform="matrix(0.35277777,0,0,-0.35277777,107.33836,118.49503)"
       clip-path="url(#clipPath14440)">
      <path
         d="m 0,0 3.61,0.439 v 2.19 l -6.626,0.344 v -2.1 c 0,-0.081 0.017,-0.157 0.024,-0.236 0.121,-1.349 1.242,-2.41 2.623,-2.41 H 3.61 v 1.334 z"
         style="fill:#939598;fill-opacity:1;fill-rule:nonzero;stroke:none"
         id="path11437" />
    </g>
    <g
       id="g11439"
       transform="matrix(0.35277777,0,0,-0.35277777,115.60863,119.12065)"
       clip-path="url(#clipPath14434)">
      <path
         d="m 0,0 c 3.71,0 7.411,0.581 10.895,1.858 2.825,1.037 5.433,2.495 5.433,4.349 0,1.855 -2.608,3.313 -5.433,4.349 C 7.411,11.833 3.71,12.415 0,12.415 H -0.613 V 0 Z"
         style="fill:#939598;fill-opacity:1;fill-rule:nonzero;stroke:none"
         id="path11441" />
    </g>
    <g
       id="g11443"
       transform="matrix(0.35277777,0,0,-0.35277777,106.27449,115.67472)"
       clip-path="url(#clipPath14428)">
      <path
         d="m 0,0 v -4.76 l 6.626,0.343 v 1.034 l -2.872,0.377 2.872,0.376 v 1.169 l -4.489,0.45 4.489,0.449 v 1.26 l -3.61,0.397 3.61,0.396 V 2.646 H 2.646 C 1.266,2.646 0.145,1.585 0.023,0.236 0.017,0.157 0,0.081 0,0"
         style="fill:#939598;fill-opacity:1;fill-rule:nonzero;stroke:none"
         id="path11445" />
    </g>
    <g
       id="g11447"
       transform="matrix(0.35277777,0,0,-0.35277777,110.01965,122.8977)"
       clip-path="url(#clipPath14422)">
      <path
         d="m 0,0 v 8.628 2.079 12.414 0.275 h -3.99 v -0.275 -1.155 l -3.611,-0.397 3.611,-0.396 v -1.26 l -4.489,-0.45 4.489,-0.45 v -1.168 l -2.872,-0.377 2.872,-0.376 v -1.034 l -6.626,-0.344 -2.519,-0.131 2.519,-0.13 6.626,-0.344 v -2.19 L -7.601,12.48 -3.99,12.041 V 10.707 8.425 8.226 L -5.764,7.835 -3.99,7.445 V 5.253 L -9.094,4.832 -3.99,4.409 V 1.916 L -8.479,1.502 -6.827,1.35 -5.367,1.216 -3.99,1.089 V 0.018 -1.303 l -1.572,-0.206 -1.3,-0.171 1.3,-0.17 1.572,-0.206 V -3.954 L -5.562,-4.16 -6.401,-4.27 V -4.391 L -5.562,-4.5 -3.99,-4.707 v -0.43 -0.374 L 0,-5.625 v 0.374 z"
         style="fill:#000000;fill-opacity:1;fill-rule:nonzero;stroke:none"
         id="path11449" />
    </g>
    <g
       id="g11451"
       transform="matrix(0.35277777,0,0,-0.35277777,115.39227,122.96607)"
       clip-path="url(#clipPath14416)">
      <path
         d="m 0,0 v 9.599 1.301 12.415 0.274 h -3.99 v -0.274 -1.263 l -2.72,-0.289 2.72,-0.288 v -2.21 l -6.085,-0.403 6.085,-0.404 v -2.354 l -2.72,-0.327 2.72,-0.325 V 13.078 L -12.402,12.674 -3.99,12.27 V 10.9 9.777 L -6.306,9.47 -5.26,9.331 -3.99,9.163 V 6.692 L -7.199,6.348 -3.99,6.003 V 3.655 L -10.075,3.252 -3.99,2.848 V 0.079 -0.104 l -2.861,-0.291 -0.609,-0.062 0.556,-0.056 2.914,-0.296 v -1.755 l -3.47,-0.245 -1.3,-0.092 -1.315,-0.093 1.315,-0.092 1.3,-0.092 3.47,-0.244 V -5.378 -5.752 L 0,-5.866 v 0.374 z"
         style="fill:#000000;fill-opacity:1;fill-rule:nonzero;stroke:none"
         id="path11453" />
    </g>
    <g
       id="g11455"
       transform="matrix(0.35277777,0,0,-0.35277777,79.838203,123.49506)"
       clip-path="url(#clipPath14410)">
      <path
         d="M 0,0 C 0.242,0.129 0.437,0.329 0.568,0.568 L 11.789,0.357 c 0.076,-0.064 0.154,-0.126 0.243,-0.172 v -1.642 l 1.3,-0.037 v 1.678 c 0.072,0.038 0.135,0.091 0.198,0.141 L 25.364,0.103 v -1.941 l 1.3,-0.037 v 2.187 c 0.424,0.224 0.715,0.659 0.737,1.166 0.001,0.021 0.009,0.04 0.009,0.062 0,0.77 -0.624,1.395 -1.394,1.395 -0.502,0 -0.939,-0.268 -1.184,-0.665 L 15.721,1.841 24.098,1.448 24.637,1.422 c 0.01,-0.121 0.034,-0.237 0.074,-0.348 L 13.954,0.872 c 0.065,0.149 0.108,0.307 0.115,0.478 10e-4,0.021 0.009,0.04 0.009,0.061 0,0.771 -0.625,1.395 -1.395,1.395 -0.402,0 -0.761,-0.172 -1.016,-0.444 L 8.321,1.925 11.301,1.535 C 11.297,1.494 11.288,1.454 11.288,1.411 c 0,-0.031 0.011,-0.059 0.013,-0.09 0.012,-0.178 0.058,-0.343 0.132,-0.496 L 0.592,0.621 c 0.089,0.178 0.147,0.372 0.15,0.584 0,0.008 0.004,0.015 0.004,0.023 0,0.77 -0.625,1.395 -1.395,1.395 -0.29,0 -0.559,-0.089 -0.783,-0.241 L -7.142,1.925 -2.015,1.514 C -2.033,1.421 -2.044,1.326 -2.044,1.228 c 0,-0.02 0.007,-0.036 0.008,-0.055 C -2.016,0.663 -1.725,0.227 -1.3,0 v -0.17 l -8.502,-0.482 6.41,-0.364 2.402,-0.136 v 0.067 L -0.299,-1.104 0,-1.113 Z"
         style="fill:#2aabe2;fill-opacity:1;fill-rule:nonzero;stroke:none"
         id="path11457" />
    </g>
    <g
       id="g11459"
       transform="matrix(0.35277777,0,0,-0.35277777,70.202642,122.69926)"
       clip-path="url(#clipPath14404)">
      <path
         d="m 0,0 c -0.716,0 -1.3,-0.542 -1.379,-1.236 l -3.29,-0.225 -2.927,-0.2 6.404,-0.438 c 0.117,-0.19 0.276,-0.351 0.466,-0.469 l 1.396,-0.04 c 0.43,0.238 0.726,0.688 0.726,1.213 0,0.005 -0.002,0.01 -0.002,0.015 C 1.386,-0.617 0.766,0 0,0"
         style="fill:#2aabe2;fill-opacity:1;fill-rule:nonzero;stroke:none"
         id="path11461" />
    </g>
    <g
       id="g11463"
       transform="matrix(0.35277777,0,0,-0.35277777,65.499374,122.76385)"
       clip-path="url(#clipPath14398)">
      <path
         d="m 0,0 c -0.578,0 -1.074,-0.353 -1.286,-0.854 l -14.759,-0.458 6.957,-0.216 7.758,-0.24 c 0.024,-0.076 0.049,-0.15 0.083,-0.221 l 2.463,-0.07 c 0.11,0.197 0.18,0.421 0.18,0.664 0,0.006 -0.002,0.011 -0.002,0.017 C 1.384,-0.616 0.765,0 0,0"
         style="fill:#2aabe2;fill-opacity:1;fill-rule:nonzero;stroke:none"
         id="path11465" />
    </g>
    <g
       id="g11467"
       transform="matrix(0.35277777,0,0,-0.35277777,75.134969,123.55969)"
       clip-path="url(#clipPath14392)">
      <path
         d="m 0,0 c 0.441,0.234 0.746,0.693 0.746,1.228 v 0.001 c -0.001,0.77 -0.625,1.394 -1.395,1.394 -0.592,0 -1.095,-0.371 -1.297,-0.892 L -11.102,1.276 -7.943,1.12 -1.98,0.823 C -1.928,0.651 -1.836,0.501 -1.725,0.365 L -6.529,-0.054 -1.3,-0.51 v -0.002 l 0.04,-0.001 h 0.001 l 0.466,-0.041 v 0.028 L -0.104,-0.546 0,-0.549 Z"
         style="fill:#2aabe2;fill-opacity:1;fill-rule:nonzero;stroke:none"
         id="path11469" />
    </g>
    <g
       id="g11471"
       transform="matrix(0.35277777,0,0,-0.35277777,107.33836,122.85981)"
       clip-path="url(#clipPath14386)">
      <path
         d="M 0,0 C 0,-0.02 0.007,-0.038 0.008,-0.058 L -0.297,-0.08 -5.451,-0.458 0.335,-0.882 C 0.45,-1.018 0.581,-1.139 0.738,-1.224 v -0.563 l 1.3,0.17 v 0.386 c 0.42,0.22 0.707,0.646 0.739,1.144 C 2.779,-0.058 2.79,-0.03 2.79,0 2.79,0.454 2.569,0.854 2.233,1.108 L 0.773,1.243 C 0.316,1.014 0,0.546 0,0"
         style="fill:#2aabe2;fill-opacity:1;fill-rule:nonzero;stroke:none"
         id="path11473" />
    </g>
    <g
       id="g11475"
       transform="matrix(0.35277777,0,0,-0.35277777,108.05732,124.48538)"
       clip-path="url(#clipPath14380)">
      <path
         d="M 0,0 -0.839,0.11 V 0.231 L 0,0.341 V 2.65 L -1.3,2.821 V 2.072 L -4.413,1.656 -1.3,1.24 V 0.797 L -8.819,0.326 -1.3,-0.146 V -0.554 L -0.168,-0.586 0,-0.591 Z"
         style="fill:#2aabe2;fill-opacity:1;fill-rule:nonzero;stroke:none"
         id="path11477" />
    </g>
    <g
       id="g11479"
       transform="matrix(0.35277777,0,0,-0.35277777,93.947938,124.29089)"
       clip-path="url(#clipPath14374)">
      <path
         d="m 0,0 v 2.632 c 0.437,0.231 0.738,0.683 0.745,1.21 0,0.007 0.002,0.012 0.002,0.019 0,0.77 -0.624,1.394 -1.394,1.394 -0.447,0 -0.839,-0.213 -1.095,-0.539 L -9.644,4.264 -2.038,3.828 c 0,-0.002 10e-4,-0.004 10e-4,-0.006 0.01,-0.336 0.143,-0.634 0.35,-0.868 L -7.482,2.518 -1.3,2.053 V 1.657 L -3.409,1.187 -1.3,0.718 V 0.037 l 0.156,-0.004 z"
         style="fill:#2aabe2;fill-opacity:1;fill-rule:nonzero;stroke:none"
         id="path11481" />
    </g>
    <g
       id="g11483"
       transform="matrix(0.35277777,0,0,-0.35277777,113.02517,122.90116)"
       clip-path="url(#clipPath14368)">
      <path
         d="m 0,0 c 0,0.771 -0.624,1.395 -1.395,1.395 -0.748,0 -1.353,-0.59 -1.388,-1.33 l -1.18,-0.088 -4.224,-0.318 5.636,-0.424 c 0.128,-0.19 0.298,-0.35 0.501,-0.459 V -1.9 l -4.058,-0.436 4.058,-0.436 v -0.313 l 1.3,0.092 v 1.763 c 0.232,0.122 0.423,0.308 0.556,0.533 l -0.556,0.056 0.609,0.062 c 0.075,0.158 0.123,0.329 0.132,0.513 C -0.008,-0.043 0,-0.023 0,0"
         style="fill:#2aabe2;fill-opacity:1;fill-rule:nonzero;stroke:none"
         id="path11485" />
    </g>
    <g
       id="g11487"
       transform="matrix(0.35277777,0,0,-0.35277777,112.76059,124.08712)"
       clip-path="url(#clipPath14362)">
      <path
         d="M 0,0 -1.3,0.092 V -0.641 L -3.695,-1.053 -1.3,-1.464 v -0.6 L -0.911,-2.075 0,-2.101 Z"
         style="fill:#2aabe2;fill-opacity:1;fill-rule:nonzero;stroke:none"
         id="path11489" />
    </g>
    <g
       id="g11491"
       transform="matrix(0.35277777,0,0,-0.35277777,98.423135,122.41383)"
       clip-path="url(#clipPath14356)">
      <path
         d="m 0,0 c -0.484,0 -0.91,-0.247 -1.16,-0.622 l -6.953,-0.435 5.725,-0.359 1.005,-0.063 c 0.016,-0.25 0.093,-0.48 0.224,-0.676 l -3.047,-0.399 3.552,-0.464 V -3.75 l -6.129,-0.466 6.129,-0.467 v -0.982 l 1.3,-0.037 v 3.077 c 0.443,0.234 0.749,0.694 0.749,1.229 0,10e-4 10e-4,10e-4 10e-4,10e-4 C 1.396,-0.625 0.771,0 0,0"
         style="fill:#2aabe2;fill-opacity:1;fill-rule:nonzero;stroke:none"
         id="path11493" />
    </g>
    <g
       id="g11495"
       transform="matrix(0.35277777,0,0,-0.35277777,103.12672,122.39076)"
       clip-path="url(#clipPath14350)">
      <path
         d="m 0,0 c -0.627,0 -1.151,-0.417 -1.327,-0.987 l -4.988,-0.385 0.784,-0.061 4.187,-0.322 c 0.102,-0.374 0.354,-0.685 0.689,-0.865 v -0.519 l -1.836,-0.395 1.836,-0.394 v -0.657 l -4.58,-0.445 4.58,-0.444 v -0.637 l 1.3,-0.037 v 3.523 c 0.439,0.23 0.741,0.684 0.748,1.212 0,0.006 0.003,0.012 0.003,0.018 C 1.396,-0.625 0.771,0 0,0"
         style="fill:#2aabe2;fill-opacity:1;fill-rule:nonzero;stroke:none"
         id="path11497" />
    </g>
    <g
       id="g11499"
       transform="matrix(0.35277777,0,0,-0.35277777,116.75618,123.14814)"
       clip-path="url(#clipPath14344)">
      <path
         d="M 0,0 C 0.054,-0.261 0.177,-0.493 0.355,-0.678 L -1.637,-0.951 0.706,-1.273 V -2.834 L -2.08,-3.239 0.706,-3.645 v -1.461 l 1.3,-0.038 v 3.693 0.5 c 0.441,0.234 0.745,0.693 0.745,1.227 V 0.278 C 2.75,1.048 2.126,1.671 1.355,1.671 0.733,1.671 0.213,1.261 0.033,0.698 L -2.013,0.467 -3.078,0.347 Z"
         style="fill:#2aabe2;fill-opacity:1;fill-rule:nonzero;stroke:none"
         id="path11501" />
    </g>
  </g>
</svg>
