<?xml version="1.0" encoding="UTF-8" standalone="no"?>
<!-- Created with Inkscape (http://www.inkscape.org/) -->

<svg
   width="73.837128mm"
   height="35.859009mm"
   viewBox="0 0 73.837128 35.859009"
   version="1.1"
   id="svg8422"
   xmlns="http://www.w3.org/2000/svg"
   xmlns:svg="http://www.w3.org/2000/svg">
  <defs
     id="defs8419">
    <clipPath
       clipPathUnits="userSpaceOnUse"
       id="clipPath7181">
      <g
         id="g7185"
         transform="translate(-243.3977,-163.7023)">
        <path
           d="M 0,612 H 792 V 0 H 0 Z"
           id="path7183" />
      </g>
    </clipPath>
    <clipPath
       clipPathUnits="userSpaceOnUse"
       id="clipPath7175">
      <g
         id="g7179">
        <path
           d="M 0,612 H 792 V 0 H 0 Z"
           id="path7177" />
      </g>
    </clipPath>
    <clipPath
       clipPathUnits="userSpaceOnUse"
       id="clipPath7169">
      <g
         id="g7173"
         transform="translate(-226.1157,-160.0465)">
        <path
           d="M 0,612 H 792 V 0 H 0 Z"
           id="path7171" />
      </g>
    </clipPath>
    <clipPath
       clipPathUnits="userSpaceOnUse"
       id="clipPath7163">
      <g
         id="g7167"
         transform="translate(-201.4633,-174.9716)">
        <path
           d="M 0,612 H 792 V 0 H 0 Z"
           id="path7165" />
      </g>
    </clipPath>
    <clipPath
       clipPathUnits="userSpaceOnUse"
       id="clipPath7157">
      <g
         id="g7161"
         transform="translate(-92.0042,-88.5898)">
        <path
           d="M 0,612 H 792 V 0 H 0 Z"
           id="path7159" />
      </g>
    </clipPath>
    <clipPath
       clipPathUnits="userSpaceOnUse"
       id="clipPath7151">
      <g
         id="g7155"
         transform="translate(-97.3654,-102.8976)">
        <path
           d="M 0,612 H 792 V 0 H 0 Z"
           id="path7153" />
      </g>
    </clipPath>
    <clipPath
       clipPathUnits="userSpaceOnUse"
       id="clipPath7145">
      <g
         id="g7149"
         transform="translate(-91.7747,-92.6483)">
        <path
           d="M 0,612 H 792 V 0 H 0 Z"
           id="path7147" />
      </g>
    </clipPath>
    <clipPath
       clipPathUnits="userSpaceOnUse"
       id="clipPath7139">
      <g
         id="g7143"
         transform="translate(-108.8591,-94.4177)">
        <path
           d="M 0,612 H 792 V 0 H 0 Z"
           id="path7141" />
      </g>
    </clipPath>
    <clipPath
       clipPathUnits="userSpaceOnUse"
       id="clipPath7133">
      <g
         id="g7137"
         transform="translate(-129.1212,-83.8176)">
        <path
           d="M 0,612 H 792 V 0 H 0 Z"
           id="path7135" />
      </g>
    </clipPath>
    <clipPath
       clipPathUnits="userSpaceOnUse"
       id="clipPath7127">
      <g
         id="g7131"
         transform="translate(-97.6002,-88.1455)">
        <path
           d="M 0,612 H 792 V 0 H 0 Z"
           id="path7129" />
      </g>
    </clipPath>
    <clipPath
       clipPathUnits="userSpaceOnUse"
       id="clipPath7121">
      <g
         id="g7125"
         transform="translate(-97.6002,-88.1455)">
        <path
           d="M 0,612 H 792 V 0 H 0 Z"
           id="path7123" />
      </g>
    </clipPath>
    <clipPath
       clipPathUnits="userSpaceOnUse"
       id="clipPath7115">
      <g
         id="g7119"
         transform="translate(-110.6805,-99.1)">
        <path
           d="M 0,612 H 792 V 0 H 0 Z"
           id="path7117" />
      </g>
    </clipPath>
    <clipPath
       clipPathUnits="userSpaceOnUse"
       id="clipPath7109">
      <g
         id="g7113"
         transform="translate(-108.9964,-100.2322)">
        <path
           d="M 0,612 H 792 V 0 H 0 Z"
           id="path7111" />
      </g>
    </clipPath>
    <clipPath
       clipPathUnits="userSpaceOnUse"
       id="clipPath7103">
      <g
         id="g7107"
         transform="translate(-112.222,-95.959)">
        <path
           d="M 0,612 H 792 V 0 H 0 Z"
           id="path7105" />
      </g>
    </clipPath>
    <clipPath
       clipPathUnits="userSpaceOnUse"
       id="clipPath7097">
      <g
         id="g7101"
         transform="translate(-110.6646,-95.5046)">
        <path
           d="M 0,612 H 792 V 0 H 0 Z"
           id="path7099" />
      </g>
    </clipPath>
    <clipPath
       clipPathUnits="userSpaceOnUse"
       id="clipPath7091">
      <g
         id="g7095"
         transform="translate(-235.4467,-105.4453)">
        <path
           d="M 0,612 H 792 V 0 H 0 Z"
           id="path7093" />
      </g>
    </clipPath>
    <clipPath
       clipPathUnits="userSpaceOnUse"
       id="clipPath1579">
      <path
         d="m 208.327,100.278 34.659,-24.287 c 0.119,0.199 0.238,0.4 0.293,0.5 v 0 c 5.834,10.164 2.319,23.133 -7.833,28.954 v 0 c -3.327,1.913 -6.949,2.822 -10.525,2.821 v 0 c -6.321,0 -12.491,-2.841 -16.594,-7.988"
         id="path1577" />
    </clipPath>
    <mask
       maskUnits="userSpaceOnUse"
       x="0"
       y="0"
       width="1"
       height="1"
       id="mask1597">
      <g
         id="g1607">
        <g
           id="g1605">
          <g
             id="g1603">
            <g
               id="g1601">
              <path
                 d="M -32768,32767 H 32767 V -32768 H -32768 Z"
                 style="fill:url(#linearGradient1595);stroke:none"
                 id="path1599" />
            </g>
          </g>
        </g>
      </g>
    </mask>
    <linearGradient
       x1="0"
       y1="0"
       x2="1"
       y2="0"
       gradientUnits="userSpaceOnUse"
       gradientTransform="matrix(-32.302383,27.105991,-27.105991,-32.302383,247.60754,81.497856)"
       spreadMethod="pad"
       id="linearGradient1595">
      <stop
         style="stop-opacity:0;stop-color:#ffffff"
         offset="0"
         id="stop1589" />
      <stop
         style="stop-opacity:0;stop-color:#ffffff"
         offset="0.63995622"
         id="stop1591" />
      <stop
         style="stop-opacity:1;stop-color:#ffffff"
         offset="1"
         id="stop1593" />
    </linearGradient>
    <linearGradient
       x1="0"
       y1="0"
       x2="1"
       y2="0"
       gradientUnits="userSpaceOnUse"
       gradientTransform="matrix(-32.302383,27.105991,-27.105991,-32.302383,247.60754,81.497856)"
       spreadMethod="pad"
       id="linearGradient1619">
      <stop
         style="stop-opacity:1;stop-color:#231f20"
         offset="0"
         id="stop1613" />
      <stop
         style="stop-opacity:1;stop-color:#231f20"
         offset="0.63995622"
         id="stop1615" />
      <stop
         style="stop-opacity:1;stop-color:#231f20"
         offset="1"
         id="stop1617" />
    </linearGradient>
    <clipPath
       clipPathUnits="userSpaceOnUse"
       id="clipPath5956">
      <g
         id="g5960"
         transform="translate(-233.9222,-95.2196)">
        <path
           d="M 0,612 H 792 V 0 H 0 Z"
           id="path5958" />
      </g>
    </clipPath>
    <clipPath
       clipPathUnits="userSpaceOnUse"
       id="clipPath5950">
      <g
         id="g5954">
        <path
           d="M 0,612 H 792 V 0 H 0 Z"
           id="path5952" />
      </g>
    </clipPath>
    <clipPath
       clipPathUnits="userSpaceOnUse"
       id="clipPath1641">
      <path
         d="m 213.286,158.466 h 65.607 V 92.8691 h -65.607 z"
         id="path1639" />
    </clipPath>
    <clipPath
       clipPathUnits="userSpaceOnUse"
       id="clipPath1645">
      <path
         d="m 233.922,95.22 c 16.818,-6.724 35.895,1.469 42.622,18.284 5.855,14.649 0.392,31.016 -12.234,39.428 l -2.02,-5.082 c 7.076,-5.912 9.903,-15.913 6.298,-24.951 -4.502,-11.227 -17.245,-16.695 -28.484,-12.21 -11.242,4.49 -16.715,17.24 -12.213,28.472 3.597,9.042 12.554,14.339 21.761,13.738 l 2.035,5.086 c -14.964,2.596 -30.193,-5.497 -36.047,-20.15 -6.728,-16.811 1.462,-35.897 18.282,-42.615"
         id="path1643" />
    </clipPath>
    <mask
       maskUnits="userSpaceOnUse"
       x="0"
       y="0"
       width="1"
       height="1"
       id="mask1659">
      <g
         id="g1669">
        <g
           id="g1667">
          <g
             id="g1665">
            <g
               id="g1663">
              <path
                 d="M -32768,32767 H 32767 V -32768 H -32768 Z"
                 style="fill:url(#linearGradient1657);stroke:none"
                 id="path1661" />
            </g>
          </g>
        </g>
      </g>
    </mask>
    <linearGradient
       x1="0"
       y1="0"
       x2="1"
       y2="0"
       gradientUnits="userSpaceOnUse"
       gradientTransform="matrix(53.06271,-38.565418,38.565418,53.06271,219.55634,144.94899)"
       spreadMethod="pad"
       id="linearGradient1657">
      <stop
         style="stop-opacity:1;stop-color:#ffffff"
         offset="0"
         id="stop1651" />
      <stop
         style="stop-opacity:0;stop-color:#ffffff"
         offset="0.25069568"
         id="stop1653" />
      <stop
         style="stop-opacity:0;stop-color:#ffffff"
         offset="1"
         id="stop1655" />
    </linearGradient>
    <linearGradient
       x1="0"
       y1="0"
       x2="1"
       y2="0"
       gradientUnits="userSpaceOnUse"
       gradientTransform="matrix(53.06271,-38.565418,38.565418,53.06271,219.55634,144.94899)"
       spreadMethod="pad"
       id="linearGradient1677">
      <stop
         style="stop-opacity:1;stop-color:#231f20"
         offset="0"
         id="stop1671" />
      <stop
         style="stop-opacity:1;stop-color:#231f20"
         offset="0.25069568"
         id="stop1673" />
      <stop
         style="stop-opacity:1;stop-color:#231f20"
         offset="1"
         id="stop1675" />
    </linearGradient>
    <clipPath
       clipPathUnits="userSpaceOnUse"
       id="clipPath5944">
      <g
         id="g5948"
         transform="translate(-152.4067,-76.1667)">
        <path
           d="M 0,612 H 792 V 0 H 0 Z"
           id="path5946" />
      </g>
    </clipPath>
    <clipPath
       clipPathUnits="userSpaceOnUse"
       id="clipPath5938">
      <g
         id="g5942"
         transform="translate(-152.4067,-151.1617)">
        <path
           d="M 0,612 H 792 V 0 H 0 Z"
           id="path5940" />
      </g>
    </clipPath>
    <clipPath
       clipPathUnits="userSpaceOnUse"
       id="clipPath5932">
      <g
         id="g5936"
         transform="translate(-264.7155,-79.6784)">
        <path
           d="M 0,612 H 792 V 0 H 0 Z"
           id="path5934" />
      </g>
    </clipPath>
    <clipPath
       clipPathUnits="userSpaceOnUse"
       id="clipPath5926">
      <g
         id="g5930"
         transform="translate(-183.6417,-116.0999)">
        <path
           d="M 0,612 H 792 V 0 H 0 Z"
           id="path5928" />
      </g>
    </clipPath>
    <clipPath
       clipPathUnits="userSpaceOnUse"
       id="clipPath5920">
      <g
         id="g5924">
        <path
           d="M 0,612 H 792 V 0 H 0 Z"
           id="path5922" />
      </g>
    </clipPath>
    <clipPath
       clipPathUnits="userSpaceOnUse"
       id="clipPath5914">
      <g
         id="g5918"
         transform="translate(-200.1514,-116.0999)">
        <path
           d="M 0,612 H 792 V 0 H 0 Z"
           id="path5916" />
      </g>
    </clipPath>
    <clipPath
       clipPathUnits="userSpaceOnUse"
       id="clipPath5908">
      <g
         id="g5912"
         transform="translate(-210.8588,-116.0999)">
        <path
           d="M 0,612 H 792 V 0 H 0 Z"
           id="path5910" />
      </g>
    </clipPath>
    <clipPath
       clipPathUnits="userSpaceOnUse"
       id="clipPath5902">
      <g
         id="g5906"
         transform="translate(-202.1718,-116.0999)">
        <path
           d="M 0,612 H 792 V 0 H 0 Z"
           id="path5904" />
      </g>
    </clipPath>
    <clipPath
       clipPathUnits="userSpaceOnUse"
       id="clipPath5896">
      <g
         id="g5900"
         transform="translate(-230.1433,-116.0999)">
        <path
           d="M 0,612 H 792 V 0 H 0 Z"
           id="path5898" />
      </g>
    </clipPath>
    <clipPath
       clipPathUnits="userSpaceOnUse"
       id="clipPath5890">
      <g
         id="g5894">
        <path
           d="M 0,612 H 792 V 0 H 0 Z"
           id="path5892" />
      </g>
    </clipPath>
    <clipPath
       clipPathUnits="userSpaceOnUse"
       id="clipPath5884">
      <g
         id="g5888"
         transform="translate(-236.3629,-116.0999)">
        <path
           d="M 0,612 H 792 V 0 H 0 Z"
           id="path5886" />
      </g>
    </clipPath>
    <clipPath
       clipPathUnits="userSpaceOnUse"
       id="clipPath5878">
      <g
         id="g5882"
         transform="translate(-152.4067,-159.9606)">
        <path
           d="M 0,612 H 792 V 0 H 0 Z"
           id="path5880" />
      </g>
    </clipPath>
    <clipPath
       clipPathUnits="userSpaceOnUse"
       id="clipPath5872">
      <g
         id="g5876"
         transform="translate(-152.4067,-151.1617)">
        <path
           d="M 0,612 H 792 V 0 H 0 Z"
           id="path5874" />
      </g>
    </clipPath>
    <clipPath
       clipPathUnits="userSpaceOnUse"
       id="clipPath5866">
      <g
         id="g5870"
         transform="translate(-152.4067,-79.6784)">
        <path
           d="M 0,612 H 792 V 0 H 0 Z"
           id="path5868" />
      </g>
    </clipPath>
    <clipPath
       clipPathUnits="userSpaceOnUse"
       id="clipPath5860">
      <g
         id="g5864">
        <path
           d="M 0,612 H 792 V 0 H 0 Z"
           id="path5862" />
      </g>
    </clipPath>
    <clipPath
       clipPathUnits="userSpaceOnUse"
       id="clipPath1755">
      <path
         d="m 237.508,145.484 h 48.205 V 86.7212 h -48.205 z"
         id="path1753" />
    </clipPath>
    <clipPath
       clipPathUnits="userSpaceOnUse"
       id="clipPath1759">
      <path
         d="m 237.508,116.1 c 0,-16.223 10.789,-29.379 24.104,-29.379 13.315,0 24.101,13.156 24.101,29.379 0,16.233 -10.786,29.384 -24.101,29.384 -13.315,0 -24.104,-13.151 -24.104,-29.384"
         id="path1757" />
    </clipPath>
    <mask
       maskUnits="userSpaceOnUse"
       x="0"
       y="0"
       width="1"
       height="1"
       id="mask1773">
      <g
         id="g1783">
        <g
           id="g1781">
          <g
             id="g1779">
            <g
               id="g1777">
              <path
                 d="M -32768,32767 H 32767 V -32768 H -32768 Z"
                 style="fill:url(#linearGradient1771);stroke:none"
                 id="path1775" />
            </g>
          </g>
        </g>
      </g>
    </mask>
    <linearGradient
       x1="0"
       y1="0"
       x2="1"
       y2="0"
       gradientUnits="userSpaceOnUse"
       gradientTransform="matrix(-48.204948,0,0,-48.204948,285.7131,116.10239)"
       spreadMethod="pad"
       id="linearGradient1771">
      <stop
         style="stop-opacity:0;stop-color:#ffffff"
         offset="0"
         id="stop1765" />
      <stop
         style="stop-opacity:0;stop-color:#ffffff"
         offset="0.74930432"
         id="stop1767" />
      <stop
         style="stop-opacity:1;stop-color:#ffffff"
         offset="1"
         id="stop1769" />
    </linearGradient>
    <linearGradient
       x1="0"
       y1="0"
       x2="1"
       y2="0"
       gradientUnits="userSpaceOnUse"
       gradientTransform="matrix(-48.204948,0,0,-48.204948,285.7131,116.10239)"
       spreadMethod="pad"
       id="linearGradient1791">
      <stop
         style="stop-opacity:1;stop-color:#231f20"
         offset="0"
         id="stop1785" />
      <stop
         style="stop-opacity:1;stop-color:#231f20"
         offset="0.74930432"
         id="stop1787" />
      <stop
         style="stop-opacity:1;stop-color:#231f20"
         offset="1"
         id="stop1789" />
    </linearGradient>
    <clipPath
       clipPathUnits="userSpaceOnUse"
       id="clipPath5854">
      <g
         id="g5858"
         transform="translate(-202.968,-107.5386)">
        <path
           d="M 0,612 H 792 V 0 H 0 Z"
           id="path5856" />
      </g>
    </clipPath>
    <clipPath
       clipPathUnits="userSpaceOnUse"
       id="clipPath5848">
      <g
         id="g5852"
         transform="translate(-203.3597,-105.6644)">
        <path
           d="M 0,612 H 792 V 0 H 0 Z"
           id="path5850" />
      </g>
    </clipPath>
    <clipPath
       clipPathUnits="userSpaceOnUse"
       id="clipPath5842">
      <g
         id="g5846"
         transform="translate(-204.3572,-102.055)">
        <path
           d="M 0,612 H 792 V 0 H 0 Z"
           id="path5844" />
      </g>
    </clipPath>
    <clipPath
       clipPathUnits="userSpaceOnUse"
       id="clipPath5836">
      <g
         id="g5840"
         transform="translate(-203.5615,-127.4008)">
        <path
           d="M 0,612 H 792 V 0 H 0 Z"
           id="path5838" />
      </g>
    </clipPath>
    <clipPath
       clipPathUnits="userSpaceOnUse"
       id="clipPath5830">
      <g
         id="g5834"
         transform="translate(-204.9607,-100.3141)">
        <path
           d="M 0,612 H 792 V 0 H 0 Z"
           id="path5832" />
      </g>
    </clipPath>
    <clipPath
       clipPathUnits="userSpaceOnUse"
       id="clipPath5824">
      <g
         id="g5828"
         transform="translate(-206.37,-96.9646)">
        <path
           d="M 0,612 H 792 V 0 H 0 Z"
           id="path5826" />
      </g>
    </clipPath>
    <clipPath
       clipPathUnits="userSpaceOnUse"
       id="clipPath5818">
      <g
         id="g5822"
         transform="translate(-205.6333,-98.6138)">
        <path
           d="M 0,612 H 792 V 0 H 0 Z"
           id="path5820" />
      </g>
    </clipPath>
    <clipPath
       clipPathUnits="userSpaceOnUse"
       id="clipPath5812">
      <g
         id="g5816"
         transform="translate(-202.4138,-111.4137)">
        <path
           d="M 0,612 H 792 V 0 H 0 Z"
           id="path5814" />
      </g>
    </clipPath>
    <clipPath
       clipPathUnits="userSpaceOnUse"
       id="clipPath5806">
      <g
         id="g5810"
         transform="translate(-202.801,-123.7626)">
        <path
           d="M 0,612 H 792 V 0 H 0 Z"
           id="path5808" />
      </g>
    </clipPath>
    <clipPath
       clipPathUnits="userSpaceOnUse"
       id="clipPath5800">
      <g
         id="g5804"
         transform="translate(-207.1674,-95.3701)">
        <path
           d="M 0,612 H 792 V 0 H 0 Z"
           id="path5802" />
      </g>
    </clipPath>
    <clipPath
       clipPathUnits="userSpaceOnUse"
       id="clipPath5794">
      <g
         id="g5798"
         transform="translate(-203.1459,-125.5997)">
        <path
           d="M 0,612 H 792 V 0 H 0 Z"
           id="path5796" />
      </g>
    </clipPath>
    <clipPath
       clipPathUnits="userSpaceOnUse"
       id="clipPath5788">
      <g
         id="g5792"
         transform="translate(-202.529,-121.8907)">
        <path
           d="M 0,612 H 792 V 0 H 0 Z"
           id="path5790" />
      </g>
    </clipPath>
    <clipPath
       clipPathUnits="userSpaceOnUse"
       id="clipPath5782">
      <g
         id="g5786"
         transform="translate(-202.2542,-113.4591)">
        <path
           d="M 0,612 H 792 V 0 H 0 Z"
           id="path5784" />
      </g>
    </clipPath>
    <clipPath
       clipPathUnits="userSpaceOnUse"
       id="clipPath5776">
      <g
         id="g5780"
         transform="translate(-202.1718,-116.0999)">
        <path
           d="M 0,612 H 792 V 0 H 0 Z"
           id="path5778" />
      </g>
    </clipPath>
    <clipPath
       clipPathUnits="userSpaceOnUse"
       id="clipPath5770">
      <g
         id="g5774"
         transform="translate(-202.3321,-119.9882)">
        <path
           d="M 0,612 H 792 V 0 H 0 Z"
           id="path5772" />
      </g>
    </clipPath>
    <clipPath
       clipPathUnits="userSpaceOnUse"
       id="clipPath5764">
      <g
         id="g5768"
         transform="translate(-202.2123,-118.0564)">
        <path
           d="M 0,612 H 792 V 0 H 0 Z"
           id="path5766" />
      </g>
    </clipPath>
    <clipPath
       clipPathUnits="userSpaceOnUse"
       id="clipPath5758">
      <g
         id="g5762"
         transform="translate(-202.6525,-109.4502)">
        <path
           d="M 0,612 H 792 V 0 H 0 Z"
           id="path5760" />
      </g>
    </clipPath>
    <clipPath
       clipPathUnits="userSpaceOnUse"
       id="clipPath5752">
      <g
         id="g5756"
         transform="translate(-222.1895,-80.3706)">
        <path
           d="M 0,612 H 792 V 0 H 0 Z"
           id="path5754" />
      </g>
    </clipPath>
    <clipPath
       clipPathUnits="userSpaceOnUse"
       id="clipPath5746">
      <g
         id="g5750"
         transform="translate(-208.0256,-93.8282)">
        <path
           d="M 0,612 H 792 V 0 H 0 Z"
           id="path5748" />
      </g>
    </clipPath>
    <clipPath
       clipPathUnits="userSpaceOnUse"
       id="clipPath5740">
      <g
         id="g5744"
         transform="translate(-223.621,-79.7373)">
        <path
           d="M 0,612 H 792 V 0 H 0 Z"
           id="path5742" />
      </g>
    </clipPath>
    <clipPath
       clipPathUnits="userSpaceOnUse"
       id="clipPath5734">
      <g
         id="g5738"
         transform="translate(-213.3169,-86.8214)">
        <path
           d="M 0,612 H 792 V 0 H 0 Z"
           id="path5736" />
      </g>
    </clipPath>
    <clipPath
       clipPathUnits="userSpaceOnUse"
       id="clipPath5728">
      <g
         id="g5732"
         transform="translate(-233.6384,-77.741)">
        <path
           d="M 0,612 H 792 V 0 H 0 Z"
           id="path5730" />
      </g>
    </clipPath>
    <clipPath
       clipPathUnits="userSpaceOnUse"
       id="clipPath5722">
      <g
         id="g5726"
         transform="translate(-213.1509,-145.2046)">
        <path
           d="M 0,612 H 792 V 0 H 0 Z"
           id="path5724" />
      </g>
    </clipPath>
    <clipPath
       clipPathUnits="userSpaceOnUse"
       id="clipPath5716">
      <g
         id="g5720"
         transform="translate(-219.4216,-81.8815)">
        <path
           d="M 0,612 H 792 V 0 H 0 Z"
           id="path5718" />
      </g>
    </clipPath>
    <clipPath
       clipPathUnits="userSpaceOnUse"
       id="clipPath5710">
      <g
         id="g5714"
         transform="translate(-220.7898,-81.0854)">
        <path
           d="M 0,612 H 792 V 0 H 0 Z"
           id="path5712" />
      </g>
    </clipPath>
    <clipPath
       clipPathUnits="userSpaceOnUse"
       id="clipPath5704">
      <g
         id="g5708"
         transform="translate(-210.9423,-89.544)">
        <path
           d="M 0,612 H 792 V 0 H 0 Z"
           id="path5706" />
      </g>
    </clipPath>
    <clipPath
       clipPathUnits="userSpaceOnUse"
       id="clipPath5698">
      <g
         id="g5702"
         transform="translate(-218.0875,-82.7565)">
        <path
           d="M 0,612 H 792 V 0 H 0 Z"
           id="path5700" />
      </g>
    </clipPath>
    <clipPath
       clipPathUnits="userSpaceOnUse"
       id="clipPath5692">
      <g
         id="g5696"
         transform="translate(-209.916,-90.9116)">
        <path
           d="M 0,612 H 792 V 0 H 0 Z"
           id="path5694" />
      </g>
    </clipPath>
    <clipPath
       clipPathUnits="userSpaceOnUse"
       id="clipPath5686">
      <g
         id="g5690"
         transform="translate(-212.0204,-88.2393)">
        <path
           d="M 0,612 H 792 V 0 H 0 Z"
           id="path5688" />
      </g>
    </clipPath>
    <clipPath
       clipPathUnits="userSpaceOnUse"
       id="clipPath5680">
      <g
         id="g5684"
         transform="translate(-216.7907,-83.7081)">
        <path
           d="M 0,612 H 792 V 0 H 0 Z"
           id="path5682" />
      </g>
    </clipPath>
    <clipPath
       clipPathUnits="userSpaceOnUse"
       id="clipPath5674">
      <g
         id="g5678"
         transform="translate(-214.3181,-85.8324)">
        <path
           d="M 0,612 H 792 V 0 H 0 Z"
           id="path5676" />
      </g>
    </clipPath>
    <clipPath
       clipPathUnits="userSpaceOnUse"
       id="clipPath5668">
      <g
         id="g5672"
         transform="translate(-215.5327,-84.7348)">
        <path
           d="M 0,612 H 792 V 0 H 0 Z"
           id="path5670" />
      </g>
    </clipPath>
    <clipPath
       clipPathUnits="userSpaceOnUse"
       id="clipPath5662">
      <g
         id="g5666"
         transform="translate(-211.1552,-142.9288)">
        <path
           d="M 0,612 H 792 V 0 H 0 Z"
           id="path5664" />
      </g>
    </clipPath>
    <clipPath
       clipPathUnits="userSpaceOnUse"
       id="clipPath5656">
      <g
         id="g5660"
         transform="translate(-222.2122,-151.8439)">
        <path
           d="M 0,612 H 792 V 0 H 0 Z"
           id="path5658" />
      </g>
    </clipPath>
    <clipPath
       clipPathUnits="userSpaceOnUse"
       id="clipPath5650">
      <g
         id="g5654"
         transform="translate(-210.1462,-141.6127)">
        <path
           d="M 0,612 H 792 V 0 H 0 Z"
           id="path5652" />
      </g>
    </clipPath>
    <clipPath
       clipPathUnits="userSpaceOnUse"
       id="clipPath5644">
      <g
         id="g5648"
         transform="translate(-212.2141,-144.1867)">
        <path
           d="M 0,612 H 792 V 0 H 0 Z"
           id="path5646" />
      </g>
    </clipPath>
    <clipPath
       clipPathUnits="userSpaceOnUse"
       id="clipPath5638">
      <g
         id="g5642"
         transform="translate(-208.2799,-138.8074)">
        <path
           d="M 0,612 H 792 V 0 H 0 Z"
           id="path5640" />
      </g>
    </clipPath>
    <clipPath
       clipPathUnits="userSpaceOnUse"
       id="clipPath5632">
      <g
         id="g5636"
         transform="translate(-219.4795,-150.3577)">
        <path
           d="M 0,612 H 792 V 0 H 0 Z"
           id="path5634" />
      </g>
    </clipPath>
    <clipPath
       clipPathUnits="userSpaceOnUse"
       id="clipPath5626">
      <g
         id="g5630"
         transform="translate(-207.4266,-137.3222)">
        <path
           d="M 0,612 H 792 V 0 H 0 Z"
           id="path5628" />
      </g>
    </clipPath>
    <clipPath
       clipPathUnits="userSpaceOnUse"
       id="clipPath5620">
      <g
         id="g5624"
         transform="translate(-218.1672,-149.502)">
        <path
           d="M 0,612 H 792 V 0 H 0 Z"
           id="path5622" />
      </g>
    </clipPath>
    <clipPath
       clipPathUnits="userSpaceOnUse"
       id="clipPath5614">
      <g
         id="g5618"
         transform="translate(-220.8277,-151.1387)">
        <path
           d="M 0,612 H 792 V 0 H 0 Z"
           id="path5616" />
      </g>
    </clipPath>
    <clipPath
       clipPathUnits="userSpaceOnUse"
       id="clipPath5608">
      <g
         id="g5612"
         transform="translate(-214.4678,-146.5125)">
        <path
           d="M 0,612 H 792 V 0 H 0 Z"
           id="path5610" />
      </g>
    </clipPath>
    <clipPath
       clipPathUnits="userSpaceOnUse"
       id="clipPath5602">
      <g
         id="g5606"
         transform="translate(-215.6599,-147.5774)">
        <path
           d="M 0,612 H 792 V 0 H 0 Z"
           id="path5604" />
      </g>
    </clipPath>
    <clipPath
       clipPathUnits="userSpaceOnUse"
       id="clipPath5596">
      <g
         id="g5600"
         transform="translate(-205.8916,-134.2)">
        <path
           d="M 0,612 H 792 V 0 H 0 Z"
           id="path5598" />
      </g>
    </clipPath>
    <clipPath
       clipPathUnits="userSpaceOnUse"
       id="clipPath5590">
      <g
         id="g5594"
         transform="translate(-206.6299,-135.7857)">
        <path
           d="M 0,612 H 792 V 0 H 0 Z"
           id="path5592" />
      </g>
    </clipPath>
    <clipPath
       clipPathUnits="userSpaceOnUse"
       id="clipPath5584">
      <g
         id="g5588"
         transform="translate(-204.5979,-130.888)">
        <path
           d="M 0,612 H 792 V 0 H 0 Z"
           id="path5586" />
      </g>
    </clipPath>
    <clipPath
       clipPathUnits="userSpaceOnUse"
       id="clipPath5578">
      <g
         id="g5582"
         transform="translate(-223.6291,-152.4699)">
        <path
           d="M 0,612 H 792 V 0 H 0 Z"
           id="path5580" />
      </g>
    </clipPath>
    <clipPath
       clipPathUnits="userSpaceOnUse"
       id="clipPath5572">
      <g
         id="g5576"
         transform="translate(-205.2132,-132.5658)">
        <path
           d="M 0,612 H 792 V 0 H 0 Z"
           id="path5574" />
      </g>
    </clipPath>
    <clipPath
       clipPathUnits="userSpaceOnUse"
       id="clipPath5566">
      <g
         id="g5570"
         transform="translate(-216.5468,-148.423)">
        <path
           d="M 0,612 H 792 V 0 H 0 Z"
           id="path5568" />
      </g>
    </clipPath>
    <clipPath
       clipPathUnits="userSpaceOnUse"
       id="clipPath5560">
      <g
         id="g5564"
         transform="translate(-200.8147,-129.2858)">
        <path
           d="M 0,612 H 792 V 0 H 0 Z"
           id="path5562" />
      </g>
    </clipPath>
    <clipPath
       clipPathUnits="userSpaceOnUse"
       id="clipPath5554">
      <g
         id="g5558"
         transform="translate(-232.7493,-154.4364)">
        <path
           d="M 0,612 H 792 V 0 H 0 Z"
           id="path5556" />
      </g>
    </clipPath>
    <clipPath
       clipPathUnits="userSpaceOnUse"
       id="clipPath5548">
      <g
         id="g5552"
         transform="translate(-208.2583,-90.7863)">
        <path
           d="M 0,612 H 792 V 0 H 0 Z"
           id="path5550" />
      </g>
    </clipPath>
    <clipPath
       clipPathUnits="userSpaceOnUse"
       id="clipPath5542">
      <g
         id="g5546"
         transform="translate(-201.3828,-101.555)">
        <path
           d="M 0,612 H 792 V 0 H 0 Z"
           id="path5544" />
      </g>
    </clipPath>
    <clipPath
       clipPathUnits="userSpaceOnUse"
       id="clipPath5536">
      <g
         id="g5540"
         transform="translate(-207.2453,-140.3462)">
        <path
           d="M 0,612 H 792 V 0 H 0 Z"
           id="path5538" />
      </g>
    </clipPath>
    <clipPath
       clipPathUnits="userSpaceOnUse"
       id="clipPath5530">
      <g
         id="g5534"
         transform="translate(-198.5492,-115.3646)">
        <path
           d="M 0,612 H 792 V 0 H 0 Z"
           id="path5532" />
      </g>
    </clipPath>
    <clipPath
       clipPathUnits="userSpaceOnUse"
       id="clipPath5524">
      <g
         id="g5528"
         transform="translate(-217.9016,-82.8868)">
        <path
           d="M 0,612 H 792 V 0 H 0 Z"
           id="path5526" />
      </g>
    </clipPath>
    <clipPath
       clipPathUnits="userSpaceOnUse"
       id="clipPath5518">
      <g
         id="g5522"
         transform="translate(-218.1567,-150.033)">
        <path
           d="M 0,612 H 792 V 0 H 0 Z"
           id="path5520" />
      </g>
    </clipPath>
    <clipPath
       clipPathUnits="userSpaceOnUse"
       id="clipPath5512">
      <g
         id="g5516"
         transform="translate(-201.459,-130.6134)">
        <path
           d="M 0,612 H 792 V 0 H 0 Z"
           id="path5514" />
      </g>
    </clipPath>
    <clipPath
       clipPathUnits="userSpaceOnUse"
       id="clipPath5506">
      <g
         id="g5510"
         transform="translate(-208.2583,-141.4187)">
        <path
           d="M 0,612 H 792 V 0 H 0 Z"
           id="path5508" />
      </g>
    </clipPath>
    <clipPath
       clipPathUnits="userSpaceOnUse"
       id="clipPath5500">
      <g
         id="g5504"
         transform="translate(-200.7384,-102.8825)">
        <path
           d="M 0,612 H 792 V 0 H 0 Z"
           id="path5502" />
      </g>
    </clipPath>
    <clipPath
       clipPathUnits="userSpaceOnUse"
       id="clipPath5494">
      <g
         id="g5498"
         transform="translate(-207.2453,-91.8588)">
        <path
           d="M 0,612 H 792 V 0 H 0 Z"
           id="path5496" />
      </g>
    </clipPath>
  </defs>
  <g
     id="layer1"
     transform="translate(-68.24486,-130.95571)">
    <g
       id="g1511"
       transform="matrix(0.35277777,0,0,-0.35277777,124.55683,134.93127)"
       clip-path="url(#clipPath7181)">
      <path
         d="m 0,0 c 0.789,1.548 2.154,2.816 3.942,3.458 3.516,1.262 7.456,0.193 8.844,-3.562 0.476,-1.288 0.578,-2.791 0.578,-3.772 L 20.03,-4.029 C 20.186,-2.388 19.459,0.663 18.636,2.257 16.119,7.132 11.131,9.113 6.321,7.72 2.579,6.637 0.017,3.677 -0.74,0.251 -0.838,-0.196 -0.208,-0.408 0,0"
         style="fill:#652f8e;fill-opacity:1;fill-rule:nonzero;stroke:none"
         id="path1513" />
    </g>
    <path
       d="m 249.598,163.481 h -13.356 v -3.434 h 13.356 z"
       style="fill:#919396;fill-opacity:1;fill-rule:nonzero;stroke:none"
       id="path1515"
       clip-path="url(#clipPath7175)"
       transform="matrix(0.35277777,0,0,-0.35277777,38.691537,192.6818)" />
    <g
       id="g1517"
       transform="matrix(0.35277777,0,0,-0.35277777,118.46013,136.22095)"
       clip-path="url(#clipPath7169)">
      <path
         d="M 0,0 -6.78,14.925 H -24.652 L -30.223,0 Z"
         style="fill:#bbbcbe;fill-opacity:1;fill-rule:nonzero;stroke:none"
         id="path1519" />
    </g>
    <g
       id="g1521"
       transform="matrix(0.35277777,0,0,-0.35277777,109.76331,130.95571)"
       clip-path="url(#clipPath7163)">
      <path
         d="M 0,0 H -7.081 L -17.822,-14.925 H -5.571 Z"
         style="fill:#919396;fill-opacity:1;fill-rule:nonzero;stroke:none"
         id="path1523" />
    </g>
    <g
       id="g1525"
       transform="matrix(0.35277777,0,0,-0.35277777,71.148574,161.42929)"
       clip-path="url(#clipPath7157)">
      <path
         d="M 0,0 C 0,0 -0.06,0.093 -0.19,0.338 -0.197,0.351 -0.202,0.36 -0.209,0.374 -0.213,0.382 -0.216,0.386 -0.22,0.395 -0.307,0.559 -0.37,0.702 -0.402,0.778 -0.481,0.812 -0.559,0.845 -0.639,0.876 -0.828,0.766 -1.017,0.651 -1.196,0.514 c -0.14,-0.1 -0.268,-0.216 -0.402,-0.328 -0.125,-0.121 -0.255,-0.24 -0.372,-0.37 -0.124,-0.127 -0.234,-0.263 -0.349,-0.398 -0.107,-0.139 -0.215,-0.281 -0.313,-0.427 -0.403,-0.581 -0.716,-1.215 -0.98,-1.849 -0.134,-0.319 -0.247,-0.638 -0.359,-0.957 -0.056,-0.162 -0.11,-0.319 -0.158,-0.472 -0.035,-0.111 -0.067,-0.219 -0.1,-0.328 0,0 -0.001,-10e-4 -0.001,-0.002 -0.088,-0.276 -0.176,-0.55 -0.263,-0.82 -0.042,-0.136 -0.088,-0.265 -0.132,-0.396 -0.044,-0.13 -0.084,-0.262 -0.131,-0.386 C -4.93,-6.729 -5.125,-7.198 -5.334,-7.628 -5.388,-7.735 -5.44,-7.84 -5.493,-7.944 -5.552,-8.043 -5.61,-8.141 -5.667,-8.237 -5.695,-8.285 -5.723,-8.334 -5.751,-8.381 -5.782,-8.426 -5.814,-8.47 -5.845,-8.514 -5.906,-8.603 -5.967,-8.69 -6.027,-8.776 -6.09,-8.858 -6.157,-8.934 -6.221,-9.011 -6.287,-9.086 -6.343,-9.169 -6.413,-9.234 -6.55,-9.366 -6.673,-9.505 -6.805,-9.617 -6.94,-9.729 -7.066,-9.834 -7.182,-9.931 c -0.125,-0.086 -0.239,-0.166 -0.343,-0.238 -0.053,-0.036 -0.101,-0.074 -0.151,-0.104 -0.051,-0.03 -0.099,-0.057 -0.144,-0.083 -0.088,-0.052 -0.163,-0.095 -0.224,-0.131 -0.122,-0.074 -0.187,-0.113 -0.187,-0.113 0,0 0.075,0.013 0.215,0.036 0.07,0.012 0.155,0.027 0.257,0.046 0.05,0.009 0.104,0.019 0.162,0.029 0.057,0.013 0.118,0.035 0.182,0.054 0.13,0.039 0.274,0.086 0.433,0.139 0.152,0.062 0.311,0.14 0.487,0.22 0.09,0.036 0.171,0.092 0.259,0.145 0.088,0.054 0.178,0.109 0.27,0.166 0.097,0.054 0.177,0.131 0.269,0.199 0.057,0.045 0.116,0.09 0.174,0.137 -0.042,-0.118 -0.085,-0.233 -0.129,-0.344 -0.17,-0.44 -0.364,-0.824 -0.562,-1.153 -0.198,-0.328 -0.401,-0.601 -0.588,-0.812 -0.046,-0.055 -0.092,-0.102 -0.136,-0.148 -0.044,-0.044 -0.083,-0.091 -0.123,-0.129 -0.079,-0.076 -0.145,-0.145 -0.204,-0.196 -0.117,-0.104 -0.179,-0.159 -0.179,-0.159 0,0 0.077,0.03 0.223,0.088 0.142,0.063 0.359,0.16 0.607,0.323 0.252,0.16 0.548,0.381 0.844,0.683 0.296,0.301 0.597,0.678 0.871,1.118 0.139,0.22 0.267,0.457 0.396,0.703 0.124,0.248 0.242,0.508 0.359,0.776 0.112,0.269 0.219,0.547 0.325,0.831 0.104,0.284 0.201,0.575 0.3,0.869 0.19,0.58 0.385,1.18 0.583,1.789 0.05,0.15 0.103,0.299 0.155,0.446 0.025,0.069 0.049,0.138 0.074,0.207 0.136,0.366 0.272,0.73 0.418,1.083 0.211,0.528 0.452,1.027 0.719,1.488 0.07,0.112 0.133,0.23 0.209,0.335 0.074,0.107 0.148,0.213 0.221,0.319 0.162,0.195 0.316,0.397 0.495,0.566 0.164,0.188 0.364,0.327 0.543,0.489 0.061,0.045 0.124,0.087 0.187,0.13 C 0.058,-0.085 0.028,-0.042 0.003,-0.001 0.003,-0.001 0,0 0,0"
         style="fill:#e80e8a;fill-opacity:1;fill-rule:nonzero;stroke:none"
         id="path1527" />
    </g>
    <g
       id="g1529"
       transform="matrix(0.35277777,0,0,-0.35277777,73.039886,156.38181)"
       clip-path="url(#clipPath7151)">
      <path
         d="m 0,0 c -0.084,-0.821 0.134,-1.487 0.415,-1.997 0.253,0.189 0.492,0.382 0.712,0.579 C 0.235,-0.781 0,0 0,0"
         style="fill:#000000;fill-opacity:1;fill-rule:nonzero;stroke:none"
         id="path1531" />
    </g>
    <g
       id="g1533"
       transform="matrix(0.35277777,0,0,-0.35277777,71.067611,159.99754)"
       clip-path="url(#clipPath7145)">
      <path
         d="M 0,0 C 0.726,0 1.314,0.588 1.314,1.314 1.314,2.04 0.726,2.628 0,2.628 c -0.521,0 -0.97,-0.304 -1.182,-0.743 h -4.772 l 0.452,-1.141 h 4.32 C -0.97,0.304 -0.521,0 0,0"
         style="fill:#000000;fill-opacity:1;fill-rule:nonzero;stroke:none"
         id="path1535" />
    </g>
    <g
       id="g1537"
       transform="matrix(0.35277777,0,0,-0.35277777,77.094608,159.37333)"
       clip-path="url(#clipPath7139)">
      <path
         d="m 0,0 -1.765,-0.386 c -0.294,-0.064 -0.587,-0.13 -0.883,-0.19 l -0.884,-0.185 c -0.589,-0.124 -1.181,-0.241 -1.772,-0.356 0.432,0.144 0.864,0.285 1.298,0.424 -0.315,0.281 -0.601,0.597 -0.848,0.945 -0.273,0.394 -0.501,0.823 -0.674,1.277 -0.166,0.458 -0.275,0.93 -0.327,1.427 -0.053,0.478 -0.039,0.981 0.037,1.468 0.07,0.476 0.206,0.943 0.392,1.391 -0.014,0.012 -0.026,0.023 -0.041,0.036 -0.048,0.045 -0.098,0.102 -0.153,0.16 -0.027,0.029 -0.055,0.059 -0.084,0.091 -0.028,0.033 -0.055,0.069 -0.082,0.105 -0.056,0.072 -0.115,0.144 -0.165,0.228 -0.052,0.082 -0.106,0.163 -0.15,0.253 -0.047,0.088 -0.092,0.176 -0.129,0.268 -0.041,0.09 -0.073,0.182 -0.103,0.272 -0.032,0.089 -0.052,0.18 -0.077,0.265 -0.018,0.087 -0.039,0.169 -0.05,0.248 -0.014,0.079 -0.025,0.153 -0.031,0.222 -0.031,0.273 -0.016,0.451 -0.016,0.451 0,0 0.076,-0.162 0.228,-0.372 0.037,-0.053 0.08,-0.108 0.126,-0.165 0.045,-0.057 0.099,-0.113 0.15,-0.171 0.057,-0.055 0.11,-0.114 0.172,-0.166 0.06,-0.054 0.12,-0.106 0.186,-0.153 0.061,-0.049 0.128,-0.092 0.193,-0.132 0.061,-0.042 0.129,-0.074 0.191,-0.107 0.061,-0.034 0.126,-0.056 0.183,-0.08 0.029,-0.012 0.056,-0.024 0.084,-0.033 0.028,-0.008 0.055,-0.016 0.081,-0.024 0.05,-0.013 0.093,-0.028 0.134,-0.037 0.041,0.058 0.083,0.114 0.126,0.17 0.307,0.397 0.667,0.755 1.062,1.068 0.399,0.309 0.834,0.575 1.3,0.779 0.467,0.199 0.958,0.347 1.461,0.427 0.127,0.017 0.249,0.039 0.384,0.049 l 0.198,0.017 0.177,0.007 C 0.188,9.502 0.44,9.49 0.696,9.471 1.204,9.422 1.709,9.315 2.193,9.143 2.675,8.968 3.137,8.736 3.563,8.45 3.987,8.161 4.379,7.823 4.718,7.437 5.058,7.053 5.356,6.629 5.591,6.171 5.827,5.714 6.006,5.228 6.119,4.726 6.18,4.476 6.216,4.221 6.246,3.967 6.256,3.85 6.266,3.723 6.27,3.61 L 7.325,3.359 8.77,3.009 10.683,2.546 8.784,2.078 7.031,1.646 C 6.447,1.502 5.862,1.361 5.276,1.224 L 3.52,0.808 2.641,0.6 1.761,0.4 Z m 11.403,-10.853 3.58,0.102 5.279,0.151 c 1.191,1.892 3.591,4.237 8.406,5.307 0.44,0.098 1.236,0.185 2.336,0.262 0.052,0.523 0.086,1.052 0.086,1.592 0,1.3 -0.154,2.544 -0.439,3.704 -0.095,0.386 -0.204,0.763 -0.327,1.13 -0.123,0.364 -0.258,0.718 -0.407,1.06 -0.434,1 -0.977,1.896 -1.604,2.667 L 17.169,5.691 15.525,5.775 c -0.657,1.248 -1.512,2.419 -2.609,3.555 -1.853,1.916 -4.744,3.321 -8.141,3.955 -3.024,0.564 -6.11,0.407 -8.055,-0.41 -0.065,-0.027 -0.119,-0.056 -0.182,-0.084 -2.85,-1.235 -4.077,-2.637 -5.254,-3.994 -0.505,-0.583 -1.022,-1.172 -1.651,-1.736 -0.22,-0.196 -0.458,-0.389 -0.712,-0.578 -0.871,-0.649 -1.959,-1.246 -3.474,-1.724 -1.368,-0.432 -2.814,-0.602 -4.212,-0.766 -1.971,-0.232 -3.832,-0.45 -4.379,-1.378 -0.305,-0.517 -0.269,-1.357 0.106,-2.5 h 4.771 c 0.213,0.439 0.662,0.743 1.183,0.743 0.725,0 1.314,-0.588 1.314,-1.313 0,-0.726 -0.589,-1.314 -1.314,-1.314 -0.521,0 -0.97,0.303 -1.183,0.743 h -4.32 c 0.839,-1.719 2.517,-3.01 4.788,-3.779 1.077,-0.233 2.155,-0.398 3.227,-0.537 1.104,-0.129 2.207,-0.209 3.308,-0.201 1.102,-0.004 2.193,0.122 3.276,0.315 1.082,0.211 2.126,0.569 3.175,1.008 -0.306,-0.232 -0.632,-0.443 -0.967,-0.643 -5.012,-3.58 -11.04,-0.98 -11.072,-0.966 0.025,-0.041 0.055,-0.084 0.082,-0.126 0.907,-1.405 2.914,-3.211 7.258,-3.162 2.749,0.032 4.549,-0.166 6.05,-0.503 2.049,-0.462 3.536,-1.187 6.086,-1.962 2.296,-0.698 5.817,-0.632 8.779,0.729"
         style="fill:#652f8e;fill-opacity:1;fill-rule:nonzero;stroke:none"
         id="path1539" />
    </g>
    <g
       id="g1541"
       transform="matrix(0.35277777,0,0,-0.35277777,84.242626,163.11281)"
       clip-path="url(#clipPath7133)">
      <path
         d="m 0,0 4.945,0.141 4.268,0.122 c 0.074,0.146 0.16,0.279 0.23,0.429 0.437,0.941 0.783,1.966 1.02,3.051 0.129,0.592 0.218,1.203 0.279,1.826 C 9.642,5.492 8.846,5.405 8.406,5.307 3.591,4.237 1.191,1.892 0,0"
         style="fill:#eb008b;fill-opacity:1;fill-rule:nonzero;stroke:none"
         id="path1543" />
    </g>
    <g
       id="g1545"
       transform="matrix(0.35277777,0,0,-0.35277777,73.122718,161.58603)"
       clip-path="url(#clipPath7127)">
      <path
         d="m 0,0 c -2.065,0.01 -4.12,0.412 -5.998,1.222 0.032,-0.076 0.095,-0.219 0.182,-0.383 0.004,-0.008 0.007,-0.013 0.011,-0.021 0.007,-0.014 0.012,-0.023 0.019,-0.036 0.13,-0.245 0.19,-0.338 0.19,-0.338 0,0 0.003,-0.001 0.003,-0.001 C -5.561,0.429 0.467,-2.171 5.479,1.409 4.832,1.023 4.141,0.699 3.408,0.492 2.302,0.173 1.149,0.009 0,0"
         style="fill:#eb008b;fill-opacity:1;fill-rule:nonzero;stroke:none"
         id="path1547" />
    </g>
    <g
       id="g1549"
       transform="matrix(0.35277777,0,0,-0.35277777,73.122718,161.58603)"
       clip-path="url(#clipPath7121)">
      <path
         d="M 0,0 C 1.149,0.009 2.302,0.173 3.408,0.492 4.141,0.699 4.832,1.023 5.479,1.409 5.814,1.609 6.14,1.82 6.446,2.053 5.397,1.613 4.353,1.255 3.27,1.044 2.188,0.852 1.097,0.725 -0.005,0.729 -1.106,0.721 -2.209,0.801 -3.313,0.93 -4.385,1.069 -5.463,1.234 -6.54,1.468 -6.569,1.474 -6.598,1.478 -6.626,1.484 -6.5,1.421 -6.367,1.372 -6.235,1.321 -6.155,1.29 -6.077,1.256 -5.998,1.222 -4.12,0.412 -2.065,0.01 0,0"
         style="fill:#000000;fill-opacity:1;fill-rule:nonzero;stroke:none"
         id="path1551" />
    </g>
    <g
       id="g1553"
       transform="matrix(0.35277777,0,0,-0.35277777,77.737157,157.72152)"
       clip-path="url(#clipPath7115)">
      <path
         d="m 0,0 c 0,0.135 -0.023,0.265 -0.064,0.387 0.982,-0.748 1.615,-1.928 1.615,-3.257 0,-0.091 -0.003,-0.181 -0.01,-0.271 l 1.703,0.489 c 0.534,0.155 1.07,0.306 1.606,0.455 l -1.021,0.227 -0.402,0.089 0.008,0.416 10e-4,0.08 10e-4,0.01 v 0.002 L 3.436,-1.355 3.435,-1.311 3.429,-1.134 C 3.428,-1.072 3.421,-1.029 3.417,-0.975 L 3.404,-0.822 C 3.377,-0.61 3.347,-0.397 3.295,-0.189 3.199,0.229 3.047,0.633 2.849,1.012 2.654,1.394 2.408,1.749 2.126,2.071 1.844,2.396 1.516,2.677 1.166,2.925 0.814,3.17 0.43,3.369 0.029,3.523 -0.375,3.67 -0.795,3.775 -1.224,3.826 -1.437,3.847 -1.656,3.864 -1.868,3.86 L -2.045,3.857 -2.199,3.847 C -2.301,3.844 -2.411,3.828 -2.518,3.818 -2.948,3.765 -3.37,3.653 -3.776,3.497 -4.181,3.34 -4.568,3.131 -4.927,2.881 -5.283,2.625 -5.613,2.33 -5.899,1.994 -6.042,1.826 -6.177,1.651 -6.299,1.467 -6.363,1.376 -6.417,1.28 -6.477,1.186 -6.53,1.089 -6.589,0.994 -6.636,0.894 -6.837,0.498 -6.994,0.076 -7.089,-0.362 l -0.035,-0.164 -0.029,-0.166 c -0.021,-0.111 -0.029,-0.223 -0.044,-0.335 -0.014,-0.112 -0.017,-0.225 -0.027,-0.337 -10e-4,-0.104 -0.007,-0.236 -0.004,-0.345 0.007,-0.443 0.071,-0.905 0.189,-1.346 0.117,-0.443 0.29,-0.874 0.513,-1.282 0.201,-0.365 0.445,-0.709 0.72,-1.031 0.007,0.002 0.013,0.004 0.02,0.006 -0.531,0.691 -0.848,1.554 -0.848,2.492 0,2.26 1.832,4.093 4.093,4.093 0.294,0 0.58,-0.032 0.857,-0.091 C -2.131,0.95 -2.446,0.512 -2.446,0 c 0,-0.068 0.007,-0.135 0.018,-0.201 0.006,-0.035 0.013,-0.07 0.022,-0.104 0,-0.001 0.001,-0.003 0.001,-0.004 0.009,-0.034 0.019,-0.068 0.031,-0.101 0,0 10e-4,-0.001 10e-4,-0.002 0.07,-0.197 0.19,-0.37 0.343,-0.506 0.006,-0.004 0.01,-0.009 0.015,-0.013 0.019,-0.016 0.039,-0.031 0.058,-0.046 0.011,-0.008 0.021,-0.016 0.032,-0.023 0.018,-0.013 0.036,-0.024 0.054,-0.036 0.014,-0.008 0.028,-0.017 0.042,-0.025 0.017,-0.01 0.035,-0.019 0.052,-0.029 0.017,-0.008 0.033,-0.016 0.05,-0.023 0.017,-0.008 0.034,-0.015 0.051,-0.022 0.019,-0.008 0.038,-0.015 0.057,-0.021 0.017,-0.006 0.033,-0.011 0.05,-0.017 0.021,-0.006 0.043,-0.011 0.064,-0.016 0.016,-0.004 0.032,-0.008 0.047,-0.011 0.025,-0.005 0.051,-0.008 0.076,-0.011 0.013,-0.002 0.027,-0.005 0.04,-0.006 0.039,-0.004 0.079,-0.006 0.119,-0.006 0.049,0 0.098,0.004 0.146,0.01 0.013,0.001 0.026,0.004 0.04,0.006 0.035,0.005 0.07,0.012 0.105,0.02 0.012,0.003 0.025,0.007 0.037,0.01 0.04,0.011 0.079,0.024 0.117,0.039 0.005,0.002 0.01,0.003 0.015,0.006 0.046,0.018 0.091,0.039 0.133,0.063 C -0.254,-0.86 0,-0.46 0,0"
         style="fill:#ffffff;fill-opacity:1;fill-rule:nonzero;stroke:none"
         id="path1555" />
    </g>
    <g
       id="g1557"
       transform="matrix(0.35277777,0,0,-0.35277777,77.143044,157.32211)"
       clip-path="url(#clipPath7109)">
      <path
         d="m 0,0 c -0.277,0.059 -0.563,0.091 -0.857,0.091 -2.261,0 -4.093,-1.833 -4.093,-4.093 0,-0.938 0.317,-1.802 0.848,-2.492 0.127,0.041 0.253,0.082 0.379,0.121 l 0.862,0.273 c 0.051,0.016 0.102,0.032 0.152,0.048 -0.565,0.494 -0.923,1.22 -0.923,2.03 0,1.49 1.208,2.697 2.697,2.697 0.065,0 0.128,-0.003 0.191,-0.007 0,0 0,0 0,-10e-4 -0.011,0.066 -0.018,0.132 -0.018,0.201 0,0.512 0.315,0.95 0.762,1.132"
         style="fill:#26aae1;fill-opacity:1;fill-rule:nonzero;stroke:none"
         id="path1559" />
    </g>
    <g
       id="g1561"
       transform="matrix(0.35277777,0,0,-0.35277777,78.280964,158.8296)"
       clip-path="url(#clipPath7103)">
      <path
         d="m 0,0 c 0.006,0.09 0.01,0.18 0.01,0.271 0,1.329 -0.634,2.509 -1.615,3.257 0.041,-0.122 0.064,-0.252 0.064,-0.387 0,-0.46 -0.255,-0.86 -0.63,-1.069 0.439,-0.479 0.708,-1.119 0.708,-1.82 0,-0.245 -0.033,-0.481 -0.094,-0.706 l 0.657,0.195 0.867,0.25 z"
         style="fill:#26aae1;fill-opacity:1;fill-rule:nonzero;stroke:none"
         id="path1563" />
    </g>
    <g
       id="g1565"
       transform="matrix(0.35277777,0,0,-0.35277777,77.731548,158.9899)"
       clip-path="url(#clipPath7097)">
      <path
         d="m 0,0 c 0.061,0.225 0.094,0.462 0.094,0.706 0,0.702 -0.268,1.341 -0.708,1.821 C -0.656,2.503 -0.701,2.482 -0.747,2.463 -0.752,2.461 -0.757,2.459 -0.762,2.457 -0.8,2.442 -0.839,2.43 -0.879,2.418 -0.891,2.415 -0.904,2.412 -0.916,2.409 -0.951,2.4 -0.986,2.393 -1.022,2.388 -1.035,2.386 -1.048,2.384 -1.062,2.382 -1.109,2.376 -1.158,2.373 -1.207,2.373 c -0.04,0 -0.08,0.002 -0.119,0.005 -0.013,0.002 -0.027,0.004 -0.04,0.006 -0.025,0.003 -0.051,0.007 -0.076,0.012 -0.016,0.003 -0.031,0.007 -0.047,0.01 C -1.51,2.412 -1.532,2.417 -1.553,2.423 -1.57,2.428 -1.586,2.434 -1.603,2.439 -1.622,2.446 -1.641,2.453 -1.66,2.46 -1.677,2.467 -1.694,2.474 -1.711,2.482 -1.728,2.49 -1.744,2.498 -1.761,2.506 -1.778,2.515 -1.796,2.524 -1.813,2.534 -1.827,2.542 -1.841,2.551 -1.855,2.559 -1.873,2.571 -1.892,2.583 -1.909,2.595 -1.92,2.603 -1.93,2.611 -1.941,2.619 c -0.02,0.015 -0.039,0.029 -0.058,0.045 -0.005,0.005 -0.009,0.009 -0.015,0.014 -0.153,0.135 -0.273,0.309 -0.343,0.506 -10e-4,0 -10e-4,10e-4 -10e-4,0.002 -0.012,0.033 -0.022,0.066 -0.031,0.101 0,10e-4 -0.001,0.002 -0.001,0.003 -0.009,0.034 -0.016,0.069 -0.022,0.105 0,0 0,0 0,0 -0.063,0.005 -0.127,0.008 -0.191,0.008 -1.489,0 -2.697,-1.208 -2.697,-2.697 0,-0.81 0.358,-1.536 0.923,-2.031 -0.05,-0.016 -0.101,-0.031 -0.152,-0.047 l -0.862,-0.273 c -0.126,-0.04 -0.253,-0.081 -0.379,-0.121 -0.007,-0.002 -0.013,-0.005 -0.02,-0.007 -0.275,0.322 -0.519,0.666 -0.72,1.032 -0.223,0.407 -0.396,0.839 -0.513,1.282 -0.118,0.441 -0.182,0.902 -0.189,1.345 -0.003,0.11 0.002,0.241 0.004,0.345 0.009,0.113 0.013,0.226 0.027,0.338 0.014,0.111 0.023,0.223 0.044,0.334 l 0.028,0.166 0.036,0.164 c 0.095,0.439 0.252,0.86 0.453,1.257 0.047,0.1 0.106,0.194 0.159,0.292 0.059,0.093 0.114,0.19 0.178,0.28 0.122,0.184 0.257,0.36 0.4,0.528 0.286,0.335 0.616,0.631 0.972,0.886 0.359,0.25 0.746,0.46 1.151,0.616 0.406,0.157 0.828,0.268 1.258,0.321 0.107,0.01 0.217,0.027 0.319,0.029 l 0.154,0.01 0.177,0.003 C -1.64,7.459 -1.421,7.443 -1.208,7.422 -0.779,7.371 -0.359,7.266 0.044,7.118 0.446,6.965 0.83,6.765 1.182,6.52 1.532,6.272 1.86,5.991 2.141,5.667 2.424,5.344 2.67,4.989 2.865,4.608 3.063,4.228 3.215,3.824 3.311,3.407 3.363,3.199 3.393,2.986 3.42,2.773 L 3.433,2.62 C 3.437,2.567 3.444,2.524 3.445,2.461 L 3.451,2.284 3.452,2.24 3.453,2.222 V 2.221 L 3.452,2.211 3.451,2.131 3.443,1.714 3.845,1.625 4.866,1.399 C 4.33,1.249 3.794,1.098 3.26,0.943 L 1.557,0.454 1.525,0.445 0.657,0.195 Z M 1.714,-0.279 3.471,0.137 C 4.057,0.275 4.642,0.416 5.226,0.56 L 6.979,0.991 8.877,1.459 6.965,1.922 5.519,2.272 4.465,2.523 C 4.46,2.636 4.451,2.763 4.441,2.88 4.411,3.135 4.375,3.389 4.314,3.639 4.2,4.141 4.021,4.627 3.785,5.084 3.551,5.542 3.253,5.966 2.913,6.35 2.573,6.736 2.182,7.074 1.757,7.363 1.331,7.649 0.869,7.881 0.387,8.056 -0.096,8.228 -0.601,8.335 -1.11,8.384 -1.365,8.403 -1.618,8.415 -1.877,8.404 L -2.054,8.397 -2.252,8.38 C -2.386,8.371 -2.508,8.349 -2.635,8.331 -3.139,8.252 -3.63,8.104 -4.097,7.904 -4.562,7.7 -4.997,7.434 -5.397,7.125 -5.792,6.812 -6.151,6.454 -6.458,6.057 -6.502,6.001 -6.543,5.945 -6.585,5.887 -6.626,5.896 -6.668,5.911 -6.719,5.924 -6.744,5.932 -6.772,5.94 -6.8,5.948 c -0.027,0.009 -0.054,0.021 -0.083,0.033 -0.058,0.024 -0.123,0.046 -0.183,0.08 -0.062,0.033 -0.13,0.065 -0.192,0.107 -0.065,0.04 -0.131,0.083 -0.193,0.132 -0.065,0.047 -0.125,0.1 -0.186,0.153 -0.062,0.052 -0.114,0.111 -0.171,0.166 -0.052,0.058 -0.105,0.114 -0.15,0.171 -0.046,0.057 -0.089,0.112 -0.126,0.165 -0.153,0.21 -0.228,0.372 -0.228,0.372 0,0 -0.015,-0.178 0.015,-0.451 C -8.29,6.807 -8.28,6.733 -8.266,6.654 -8.254,6.575 -8.234,6.493 -8.215,6.406 -8.191,6.321 -8.171,6.23 -8.138,6.141 -8.108,6.051 -8.076,5.959 -8.035,5.869 -7.998,5.778 -7.954,5.689 -7.907,5.602 -7.863,5.512 -7.808,5.43 -7.756,5.348 -7.706,5.264 -7.647,5.192 -7.592,5.12 -7.564,5.084 -7.537,5.048 -7.51,5.015 -7.481,4.984 -7.453,4.953 -7.426,4.924 -7.37,4.866 -7.321,4.809 -7.272,4.764 -7.258,4.752 -7.245,4.74 -7.232,4.728 -7.417,4.281 -7.553,3.813 -7.624,3.337 -7.699,2.85 -7.714,2.347 -7.661,1.869 -7.609,1.372 -7.499,0.9 -7.333,0.442 c 0.173,-0.454 0.4,-0.883 0.673,-1.277 0.248,-0.347 0.534,-0.664 0.848,-0.945 -0.433,-0.139 -0.866,-0.28 -1.298,-0.424 0.592,0.115 1.183,0.232 1.772,0.356 l 0.885,0.185 c 0.295,0.061 0.589,0.126 0.883,0.19 l 1.765,0.386 1.76,0.4 0.881,0.201 z"
         style="fill:#000000;fill-opacity:1;fill-rule:nonzero;stroke:none"
         id="path1567" />
    </g>
    <g
       id="g1569"
       transform="matrix(0.35277777,0,0,-0.35277777,121.7519,155.48304)"
       clip-path="url(#clipPath7091)">
      <path
         d="m 0,0 c 10.151,-5.821 13.666,-18.791 7.832,-28.954 -0.054,-0.1 -0.174,-0.301 -0.293,-0.501 L -27.119,-5.168 C -20.697,2.892 -9.209,5.297 0,0"
         style="fill:#7fd1ec;fill-opacity:1;fill-rule:nonzero;stroke:none"
         id="path1571" />
    </g>
    <g
       id="g1573"
       transform="matrix(0.35277777,0,0,-0.35277777,38.691537,192.6818)">
      <g
         id="g1575"
         clip-path="url(#clipPath1579)">
        <g
           id="g1581">
          <g
             id="g1583" />
          <g
             id="g1609"
             mask="url(#mask1597)">
            <g
               id="g1611">
              <path
                 d="m 208.327,100.278 34.659,-24.287 c 0.119,0.199 0.238,0.4 0.293,0.5 v 0 c 5.834,10.164 2.319,23.133 -7.833,28.954 v 0 c -3.327,1.913 -6.949,2.822 -10.525,2.821 v 0 c -6.321,0 -12.491,-2.841 -16.594,-7.988"
                 style="fill:url(#linearGradient1619);stroke:none"
                 id="path1621" />
            </g>
          </g>
        </g>
      </g>
    </g>
    <g
       id="g1631"
       transform="matrix(0.35277777,0,0,-0.35277777,121.21409,159.09044)"
       clip-path="url(#clipPath5956)">
      <path
         d="M 0,0 C 16.818,-6.723 35.894,1.47 42.622,18.285 48.477,32.933 43.013,49.3 30.388,57.712 L 28.367,52.631 C 35.443,46.719 38.27,36.717 34.666,27.68 30.163,16.453 17.421,10.984 6.181,15.469 -5.06,19.96 -10.533,32.709 -6.031,43.942 -2.434,52.984 6.523,58.28 15.729,57.679 l 2.035,5.087 C 2.801,65.362 -12.428,57.269 -18.282,42.615 -25.011,25.805 -16.82,6.718 0,0"
         style="fill:#199ab9;fill-opacity:1;fill-rule:nonzero;stroke:none"
         id="path1633" />
    </g>
    <g
       id="g1635"
       clip-path="url(#clipPath5950)"
       transform="matrix(0.35277777,0,0,-0.35277777,38.691537,192.6818)">
      <g
         id="g1637" />
      <g
         id="g1695">
        <g
           clip-path="url(#clipPath1641)"
           opacity="0.5"
           id="g1693">
          <g
             id="g1691">
            <g
               clip-path="url(#clipPath1645)"
               id="g1689">
              <g
                 id="g1687">
                <g
                   id="g1679" />
                <g
                   mask="url(#mask1659)"
                   id="g1685">
                  <g
                     id="g1683">
                    <path
                       d="m 233.922,95.22 c 16.818,-6.724 35.895,1.469 42.622,18.284 5.855,14.649 0.392,31.016 -12.234,39.428 l -2.02,-5.082 c 7.076,-5.912 9.903,-15.913 6.298,-24.951 -4.502,-11.227 -17.245,-16.695 -28.484,-12.21 -11.242,4.49 -16.715,17.24 -12.213,28.472 3.597,9.042 12.554,14.339 21.761,13.738 l 2.035,5.086 c -14.964,2.596 -30.193,-5.497 -36.047,-20.15 -6.728,-16.811 1.462,-35.897 18.282,-42.615"
                       style="fill:url(#linearGradient1677);stroke:none"
                       id="path1681" />
                  </g>
                </g>
              </g>
            </g>
          </g>
        </g>
      </g>
    </g>
    <g
       id="g1697"
       transform="matrix(0.35277777,0,0,-0.35277777,92.457233,165.81188)"
       clip-path="url(#clipPath5944)">
      <path
         d="m 0,0 112.309,0.286 v 83.78 L 0,83.794 Z"
         style="fill:#414141;fill-opacity:1;fill-rule:nonzero;stroke:none"
         id="path1699" />
    </g>
    <g
       id="g1701"
       transform="matrix(0.35277777,0,0,-0.35277777,92.457233,139.35531)"
       clip-path="url(#clipPath5938)">
      <path
         d="M 0,0 V 8.799 L 112.309,9.071 V 0 Z"
         style="fill:#bbbcbe;fill-opacity:1;fill-rule:nonzero;stroke:none"
         id="path1703" />
    </g>
    <g
       id="g1705"
       transform="matrix(0.35277777,0,0,-0.35277777,132.07728,164.57303)"
       clip-path="url(#clipPath5932)">
      <path
         d="M 0,0 V -3.225 L -112.309,-3.512 V 0 Z"
         style="fill:#bbbcbe;fill-opacity:1;fill-rule:nonzero;stroke:none"
         id="path1707" />
    </g>
    <g
       id="g1709"
       transform="matrix(0.35277777,0,0,-0.35277777,103.47625,151.72434)"
       clip-path="url(#clipPath5926)">
      <path
         d="m 0,0 c 0,-18.609 12.378,-33.697 27.642,-33.697 15.274,0 27.651,15.088 27.651,33.697 0,18.614 -12.377,33.697 -27.651,33.697 C 12.378,33.697 0,18.614 0,0"
         style="fill:#231f20;fill-opacity:1;fill-rule:nonzero;stroke:none"
         id="path1711" />
    </g>
    <path
       d="M 242,149.797 H 211.283 V 82.403 H 242 Z"
       style="fill:#231f20;fill-opacity:1;fill-rule:nonzero;stroke:none"
       id="path1713"
       clip-path="url(#clipPath5920)"
       transform="matrix(0.35277777,0,0,-0.35277777,38.691537,192.6818)" />
    <g
       id="g1715"
       transform="matrix(0.35277777,0,0,-0.35277777,109.3005,151.72434)"
       clip-path="url(#clipPath5914)">
      <path
         d="m 0,0 c 0,-19.711 12.373,-35.687 27.647,-35.687 15.269,0 27.646,15.976 27.646,35.687 0,19.716 -12.377,35.682 -27.646,35.682 C 12.373,35.682 0,19.716 0,0"
         style="fill:#414141;fill-opacity:1;fill-rule:nonzero;stroke:none"
         id="path1717" />
    </g>
    <g
       id="g1719"
       transform="matrix(0.35277777,0,0,-0.35277777,113.07783,151.72434)"
       clip-path="url(#clipPath5908)">
      <path
         d="m 0,0 c 0,-18.609 12.382,-33.697 27.649,-33.697 15.274,0 27.647,15.088 27.647,33.697 0,18.614 -12.373,33.697 -27.647,33.697 C 12.382,33.697 0,18.614 0,0"
         style="fill:#231f20;fill-opacity:1;fill-rule:nonzero;stroke:none"
         id="path1721" />
    </g>
    <g
       id="g1723"
       transform="matrix(0.35277777,0,0,-0.35277777,110.01325,151.72434)"
       clip-path="url(#clipPath5902)">
      <path
         d="m 0,0 c 0,-21.191 14.088,-38.359 31.467,-38.359 17.38,0 31.471,17.168 31.471,38.359 0,21.186 -14.091,38.364 -31.471,38.364 C 14.088,38.364 0,21.186 0,0"
         style="fill:#231f20;fill-opacity:1;fill-rule:nonzero;stroke:none"
         id="path1725" />
    </g>
    <g
       id="g1727"
       transform="matrix(0.35277777,0,0,-0.35277777,119.88098,151.72434)"
       clip-path="url(#clipPath5896)">
      <path
         d="m 0,0 c 0,-21.191 14.086,-38.359 31.469,-38.359 17.375,0 31.463,17.168 31.463,38.359 0,21.186 -14.088,38.364 -31.463,38.364 C 14.086,38.364 0,21.186 0,0"
         style="fill:#231f20;fill-opacity:1;fill-rule:nonzero;stroke:none"
         id="path1729" />
    </g>
    <path
       d="M 261.612,154.464 H 233.639 V 77.741 h 27.973 z"
       style="fill:#231f20;fill-opacity:1;fill-rule:nonzero;stroke:none"
       id="path1731"
       clip-path="url(#clipPath5890)"
       transform="matrix(0.35277777,0,0,-0.35277777,38.691537,192.6818)" />
    <g
       id="g1733"
       transform="matrix(0.35277777,0,0,-0.35277777,122.07511,151.72434)"
       clip-path="url(#clipPath5884)">
      <path
         d="m 0,0 c 0,-16.996 11.302,-30.767 25.249,-30.767 13.94,0 25.239,13.771 25.239,30.767 0,16.992 -11.299,30.777 -25.239,30.777 C 11.302,30.777 0,16.992 0,0"
         style="fill:#ffffff;fill-opacity:1;fill-rule:nonzero;stroke:none"
         id="path1735" />
    </g>
    <g
       id="g1737"
       transform="matrix(0.35277777,0,0,-0.35277777,92.457233,136.25126)"
       clip-path="url(#clipPath5878)">
      <path
         d="M 0,0 -18.91,-4.266 V -78.617 L 0,-83.794 Z"
         style="fill:#231f20;fill-opacity:1;fill-rule:nonzero;stroke:none"
         id="path1739" />
    </g>
    <g
       id="g1741"
       transform="matrix(0.35277777,0,0,-0.35277777,92.457233,139.35531)"
       clip-path="url(#clipPath5872)">
      <path
         d="M 0,0 -18.91,-1.365 V 4.533 L 0,8.799 Z"
         style="fill:#919396;fill-opacity:1;fill-rule:nonzero;stroke:none"
         id="path1743" />
    </g>
    <g
       id="g1745"
       transform="matrix(0.35277777,0,0,-0.35277777,92.457233,164.57303)"
       clip-path="url(#clipPath5866)">
      <path
         d="M 0,0 -18.91,5.478 V 1.666 L 0,-3.512 Z"
         style="fill:#919396;fill-opacity:1;fill-rule:nonzero;stroke:none"
         id="path1747" />
    </g>
    <g
       id="g1749"
       clip-path="url(#clipPath5860)"
       transform="matrix(0.35277777,0,0,-0.35277777,38.691537,192.6818)">
      <g
         id="g1751" />
      <g
         id="g1809">
        <g
           clip-path="url(#clipPath1755)"
           opacity="0.5"
           id="g1807">
          <g
             id="g1805">
            <g
               clip-path="url(#clipPath1759)"
               id="g1803">
              <g
                 id="g1801">
                <g
                   id="g1793" />
                <g
                   mask="url(#mask1773)"
                   id="g1799">
                  <g
                     id="g1797">
                    <path
                       d="m 237.508,116.1 c 0,-16.223 10.789,-29.379 24.104,-29.379 13.315,0 24.101,13.156 24.101,29.379 0,16.233 -10.786,29.384 -24.101,29.384 -13.315,0 -24.104,-13.151 -24.104,-29.384"
                       style="fill:url(#linearGradient1791);stroke:none"
                       id="path1795" />
                  </g>
                </g>
              </g>
            </g>
          </g>
        </g>
      </g>
    </g>
    <g
       id="g1811"
       transform="matrix(0.35277777,0,0,-0.35277777,110.29414,154.74457)"
       clip-path="url(#clipPath5854)">
      <path
         d="M 0,0 C 0.059,-0.314 0.113,-0.629 0.178,-0.94 0.113,-0.629 0.059,-0.314 0,0"
         style="fill:#652f8e;fill-opacity:1;fill-rule:nonzero;stroke:none"
         id="path1813" />
    </g>
    <g
       id="g1815"
       transform="matrix(0.35277777,0,0,-0.35277777,110.43232,155.40575)"
       clip-path="url(#clipPath5848)">
      <path
         d="M 0,0 C 0.067,-0.289 0.129,-0.58 0.202,-0.866 0.13,-0.58 0.067,-0.289 0,0"
         style="fill:#652f8e;fill-opacity:1;fill-rule:nonzero;stroke:none"
         id="path1817" />
    </g>
    <g
       id="g1819"
       transform="matrix(0.35277777,0,0,-0.35277777,110.78421,156.67906)"
       clip-path="url(#clipPath5842)">
      <path
         d="M 0,0 C 0.08,-0.248 0.156,-0.498 0.24,-0.743 0.156,-0.498 0.08,-0.248 0,0"
         style="fill:#652f8e;fill-opacity:1;fill-rule:nonzero;stroke:none"
         id="path1821" />
    </g>
    <g
       id="g1823"
       transform="matrix(0.35277777,0,0,-0.35277777,110.50351,147.73763)"
       clip-path="url(#clipPath5836)">
      <path
         d="M 0,0 C -0.072,-0.285 -0.134,-0.574 -0.201,-0.861 -0.134,-0.574 -0.072,-0.285 0,0"
         style="fill:#652f8e;fill-opacity:1;fill-rule:nonzero;stroke:none"
         id="path1825" />
    </g>
    <g
       id="g1827"
       transform="matrix(0.35277777,0,0,-0.35277777,110.99712,157.29322)"
       clip-path="url(#clipPath5830)">
      <path
         d="M 0,0 C 0.084,-0.227 0.165,-0.456 0.253,-0.681 0.165,-0.456 0.084,-0.227 0,0"
         style="fill:#652f8e;fill-opacity:1;fill-rule:nonzero;stroke:none"
         id="path1829" />
    </g>
    <g
       id="g1831"
       transform="matrix(0.35277777,0,0,-0.35277777,111.49429,158.47484)"
       clip-path="url(#clipPath5824)">
      <path
         d="M 0,0 C 0.087,-0.183 0.17,-0.369 0.259,-0.55 0.17,-0.369 0.087,-0.183 0,0"
         style="fill:#652f8e;fill-opacity:1;fill-rule:nonzero;stroke:none"
         id="path1833" />
    </g>
    <g
       id="g1835"
       transform="matrix(0.35277777,0,0,-0.35277777,111.23439,157.89304)"
       clip-path="url(#clipPath5818)">
      <path
         d="M 0,0 C 0.086,-0.204 0.169,-0.411 0.258,-0.613 0.169,-0.411 0.086,-0.204 0,0"
         style="fill:#652f8e;fill-opacity:1;fill-rule:nonzero;stroke:none"
         id="path1837" />
    </g>
    <g
       id="g1839"
       transform="matrix(0.35277777,0,0,-0.35277777,110.09863,153.37752)"
       clip-path="url(#clipPath5812)">
      <path
         d="M 0,0 C 0.037,-0.369 0.07,-0.74 0.115,-1.105 0.07,-0.74 0.037,-0.369 0,0"
         style="fill:#652f8e;fill-opacity:1;fill-rule:nonzero;stroke:none"
         id="path1841" />
    </g>
    <g
       id="g1843"
       transform="matrix(0.35277777,0,0,-0.35277777,110.23522,149.02111)"
       clip-path="url(#clipPath5806)">
      <path
         d="M 0,0 C -0.056,-0.334 -0.1,-0.674 -0.148,-1.011 -0.1,-0.674 -0.056,-0.334 0,0"
         style="fill:#652f8e;fill-opacity:1;fill-rule:nonzero;stroke:none"
         id="path1845" />
    </g>
    <g
       id="g1847"
       transform="matrix(0.35277777,0,0,-0.35277777,111.77559,159.03735)"
       clip-path="url(#clipPath5800)">
      <path
         d="M 0,0 C 0.087,-0.164 0.17,-0.33 0.259,-0.493 0.171,-0.33 0.087,-0.164 0,0"
         style="fill:#652f8e;fill-opacity:1;fill-rule:nonzero;stroke:none"
         id="path1849" />
    </g>
    <g
       id="g1851"
       transform="matrix(0.35277777,0,0,-0.35277777,110.35689,148.37302)"
       clip-path="url(#clipPath5794)">
      <path
         d="M 0,0 C -0.065,-0.309 -0.119,-0.623 -0.177,-0.935 -0.119,-0.623 -0.065,-0.309 0,0"
         style="fill:#652f8e;fill-opacity:1;fill-rule:nonzero;stroke:none"
         id="path1853" />
    </g>
    <g
       id="g1855"
       transform="matrix(0.35277777,0,0,-0.35277777,110.13927,149.68147)"
       clip-path="url(#clipPath5788)">
      <path
         d="M 0,0 C -0.045,-0.364 -0.078,-0.733 -0.115,-1.1 -0.078,-0.733 -0.045,-0.364 0,0"
         style="fill:#652f8e;fill-opacity:1;fill-rule:nonzero;stroke:none"
         id="path1857" />
    </g>
    <g
       id="g1859"
       transform="matrix(0.35277777,0,0,-0.35277777,110.04232,152.65595)"
       clip-path="url(#clipPath5782)">
      <path
         d="M 0,0 C 0.023,-0.417 0.044,-0.835 0.078,-1.248 0.044,-0.835 0.023,-0.417 0,0"
         style="fill:#652f8e;fill-opacity:1;fill-rule:nonzero;stroke:none"
         id="path1861" />
    </g>
    <g
       id="g1863"
       transform="matrix(0.35277777,0,0,-0.35277777,110.01325,151.72434)"
       clip-path="url(#clipPath5776)">
      <path
         d="M 0,0 C 0,-0.656 0.014,-1.308 0.041,-1.957 0.014,-1.308 0,-0.656 0,0"
         style="fill:#652f8e;fill-opacity:1;fill-rule:nonzero;stroke:none"
         id="path1865" />
    </g>
    <g
       id="g1867"
       transform="matrix(0.35277777,0,0,-0.35277777,110.0698,150.35263)"
       clip-path="url(#clipPath5770)">
      <path
         d="M 0,0 C -0.034,-0.413 -0.055,-0.831 -0.078,-1.248 -0.055,-0.831 -0.034,-0.413 0,0"
         style="fill:#652f8e;fill-opacity:1;fill-rule:nonzero;stroke:none"
         id="path1869" />
    </g>
    <g
       id="g1871"
       transform="matrix(0.35277777,0,0,-0.35277777,110.02754,151.03413)"
       clip-path="url(#clipPath5764)">
      <path
         d="M 0,0 C -0.027,-0.648 -0.041,-1.3 -0.041,-1.956 -0.041,-1.3 -0.027,-0.648 0,0"
         style="fill:#652f8e;fill-opacity:1;fill-rule:nonzero;stroke:none"
         id="path1873" />
    </g>
    <g
       id="g1875"
       transform="matrix(0.35277777,0,0,-0.35277777,110.18283,154.0702)"
       clip-path="url(#clipPath5758)">
      <path
         d="M 0,0 C 0.049,-0.338 0.093,-0.678 0.148,-1.014 0.093,-0.678 0.048,-0.338 0,0"
         style="fill:#652f8e;fill-opacity:1;fill-rule:nonzero;stroke:none"
         id="path1877" />
    </g>
    <g
       id="g1879"
       transform="matrix(0.35277777,0,0,-0.35277777,117.07505,164.32884)"
       clip-path="url(#clipPath5752)">
      <path
         d="M 0,0 C 0.007,-0.003 0.013,-0.006 0.02,-0.009 0.013,-0.006 0.007,-0.003 0,0"
         style="fill:#652f8e;fill-opacity:1;fill-rule:nonzero;stroke:none"
         id="path1881" />
    </g>
    <g
       id="g1883"
       transform="matrix(0.35277777,0,0,-0.35277777,112.07834,159.5813)"
       clip-path="url(#clipPath5746)">
      <path
         d="M 0,0 C 0.085,-0.145 0.167,-0.292 0.254,-0.435 0.167,-0.292 0.085,-0.145 0,0"
         style="fill:#652f8e;fill-opacity:1;fill-rule:nonzero;stroke:none"
         id="path1885" />
    </g>
    <g
       id="g1887"
       transform="matrix(0.35277777,0,0,-0.35277777,117.58005,164.55225)"
       clip-path="url(#clipPath5740)">
      <path
         d="M 0,0 C 0.002,-0.001 0.003,-0.001 0.005,-0.002 0.003,-0.001 0.002,-0.001 0,0"
         style="fill:#652f8e;fill-opacity:1;fill-rule:nonzero;stroke:none"
         id="path1889" />
    </g>
    <g
       id="g1891"
       transform="matrix(0.35277777,0,0,-0.35277777,113.945,162.05314)"
       clip-path="url(#clipPath5734)">
      <path
         d="M 0,0 C -0.057,0.059 -0.113,0.119 -0.169,0.179 -0.113,0.119 -0.057,0.059 0,0"
         style="fill:#652f8e;fill-opacity:1;fill-rule:nonzero;stroke:none"
         id="path1893" />
    </g>
    <g
       id="g1895"
       transform="matrix(0.35277777,0,0,-0.35277777,121.11397,165.2565)"
       clip-path="url(#clipPath5728)">
      <path
         d="m 0,0 c -0.704,0 -1.401,0.038 -2.094,0.094 -4.807,0.304 -9.361,1.575 -13.492,3.632 -0.228,-0.614 -0.813,-1.054 -1.506,-1.054 -0.889,0 -1.61,0.721 -1.61,1.61 0,0.37 0.13,0.707 0.341,0.979 -2.762,1.693 -5.293,3.75 -7.532,6.113 -0.279,-0.234 -0.635,-0.38 -1.028,-0.38 -0.889,0 -1.61,0.721 -1.61,1.61 0,0.474 0.209,0.897 0.536,1.191 -2.076,2.599 -3.829,5.487 -5.194,8.603 -0.205,-0.095 -0.432,-0.151 -0.672,-0.151 -0.889,0 -1.61,0.721 -1.61,1.61 0,0.713 0.467,1.311 1.11,1.523 -1.229,3.573 -1.958,7.394 -2.115,11.371 -0.014,-10e-4 -0.026,-0.004 -0.039,-0.004 -0.889,0 -1.61,0.721 -1.61,1.61 0,0.889 0.721,1.61 1.61,1.61 0.013,0 0.025,-0.004 0.038,-0.004 0.157,3.975 0.885,7.796 2.112,11.368 -0.602,0.234 -1.03,0.814 -1.03,1.498 0,0.889 0.721,1.61 1.61,1.61 0.21,0 0.41,-0.043 0.595,-0.116 1.365,3.116 3.119,6.005 5.195,8.605 -0.327,0.294 -0.536,0.717 -0.536,1.191 0,0.889 0.721,1.61 1.61,1.61 0.393,0 0.749,-0.146 1.028,-0.38 2.218,2.341 4.724,4.381 7.455,6.064 -0.166,0.253 -0.264,0.554 -0.264,0.879 0,0.889 0.721,1.61 1.61,1.61 0.646,0 1.198,-0.382 1.455,-0.93 4.146,2.072 8.719,3.353 13.547,3.657 0.398,0.032 0.799,0.053 1.201,0.066 0,0 0,0 0.001,0 -0.001,0 -0.001,0 -0.001,0 0.296,0.01 0.591,0.028 0.889,0.028 h 15.345 c -5.474,2.562 -11.579,4.002 -18.022,4.002 -23.512,0 -42.571,-19.06 -42.571,-42.571 0,-23.512 19.059,-42.571 42.571,-42.571 6.784,0 13.192,1.594 18.884,4.417 z"
         style="fill:#652f8e;fill-opacity:1;fill-rule:nonzero;stroke:none"
         id="path1897" />
    </g>
    <g
       id="g1899"
       transform="matrix(0.35277777,0,0,-0.35277777,113.88644,141.45685)"
       clip-path="url(#clipPath5722)">
      <path
         d="M 0,0 C 0.056,0.059 0.111,0.118 0.167,0.177 0.111,0.118 0.056,0.059 0,0"
         style="fill:#652f8e;fill-opacity:1;fill-rule:nonzero;stroke:none"
         id="path1901" />
    </g>
    <g
       id="g1903"
       transform="matrix(0.35277777,0,0,-0.35277777,116.0986,163.79583)"
       clip-path="url(#clipPath5716)">
      <path
         d="M 0,0 C 0.019,-0.012 0.037,-0.023 0.056,-0.035 0.037,-0.023 0.019,-0.012 0,0"
         style="fill:#652f8e;fill-opacity:1;fill-rule:nonzero;stroke:none"
         id="path1905" />
    </g>
    <g
       id="g1907"
       transform="matrix(0.35277777,0,0,-0.35277777,116.58127,164.07667)"
       clip-path="url(#clipPath5710)">
      <path
         d="M 0,0 C 0.012,-0.006 0.024,-0.013 0.036,-0.02 0.024,-0.013 0.012,-0.006 0,0"
         style="fill:#652f8e;fill-opacity:1;fill-rule:nonzero;stroke:none"
         id="path1909" />
    </g>
    <g
       id="g1911"
       transform="matrix(0.35277777,0,0,-0.35277777,113.10729,161.09267)"
       clip-path="url(#clipPath5704)">
      <path
         d="M 0,0 C 0.071,-0.09 0.141,-0.183 0.213,-0.272 0.141,-0.183 0.071,-0.091 0,0"
         style="fill:#652f8e;fill-opacity:1;fill-rule:nonzero;stroke:none"
         id="path1913" />
    </g>
    <g
       id="g1915"
       transform="matrix(0.35277777,0,0,-0.35277777,115.62796,163.48715)"
       clip-path="url(#clipPath5698)">
      <path
         d="M 0,0 C 0.026,-0.018 0.052,-0.037 0.079,-0.055 0.052,-0.037 0.026,-0.018 0,0"
         style="fill:#652f8e;fill-opacity:1;fill-rule:nonzero;stroke:none"
         id="path1917" />
    </g>
    <g
       id="g1919"
       transform="matrix(0.35277777,0,0,-0.35277777,112.74524,160.61021)"
       clip-path="url(#clipPath5692)">
      <path
         d="M 0,0 C 0.077,-0.107 0.152,-0.217 0.23,-0.323 0.152,-0.217 0.077,-0.108 0,0"
         style="fill:#652f8e;fill-opacity:1;fill-rule:nonzero;stroke:none"
         id="path1921" />
    </g>
    <g
       id="g1923"
       transform="matrix(0.35277777,0,0,-0.35277777,113.48762,161.55294)"
       clip-path="url(#clipPath5686)">
      <path
         d="M 0,0 C 0.064,-0.074 0.128,-0.15 0.193,-0.224 0.128,-0.15 0.064,-0.074 0,0"
         style="fill:#652f8e;fill-opacity:1;fill-rule:nonzero;stroke:none"
         id="path1925" />
    </g>
    <g
       id="g1927"
       transform="matrix(0.35277777,0,0,-0.35277777,115.17048,163.15144)"
       clip-path="url(#clipPath5680)">
      <path
         d="M 0,0 C 0.034,-0.027 0.068,-0.054 0.102,-0.08 0.068,-0.054 0.034,-0.027 0,0"
         style="fill:#652f8e;fill-opacity:1;fill-rule:nonzero;stroke:none"
         id="path1929" />
    </g>
    <g
       id="g1931"
       transform="matrix(0.35277777,0,0,-0.35277777,114.2982,162.40204)"
       clip-path="url(#clipPath5674)">
      <path
         d="M 0,0 C 0.05,-0.047 0.099,-0.096 0.149,-0.143 0.099,-0.096 0.05,-0.047 0,0"
         style="fill:#652f8e;fill-opacity:1;fill-rule:nonzero;stroke:none"
         id="path1933" />
    </g>
    <g
       id="g1935"
       transform="matrix(0.35277777,0,0,-0.35277777,114.72668,162.78925)"
       clip-path="url(#clipPath5668)">
      <path
         d="M 0,0 C 0.043,-0.037 0.084,-0.074 0.127,-0.11 0.084,-0.074 0.043,-0.037 0,0"
         style="fill:#652f8e;fill-opacity:1;fill-rule:nonzero;stroke:none"
         id="path1937" />
    </g>
    <g
       id="g1939"
       transform="matrix(0.35277777,0,0,-0.35277777,113.1824,142.2597)"
       clip-path="url(#clipPath5662)">
      <path
         d="M 0,0 C -0.07,-0.087 -0.138,-0.177 -0.207,-0.265 -0.138,-0.177 -0.07,-0.087 0,0"
         style="fill:#652f8e;fill-opacity:1;fill-rule:nonzero;stroke:none"
         id="path1941" />
    </g>
    <g
       id="g1943"
       transform="matrix(0.35277777,0,0,-0.35277777,117.08306,139.11465)"
       clip-path="url(#clipPath5656)">
      <path
         d="M 0,0 C -0.006,-0.003 -0.012,-0.006 -0.018,-0.008 -0.012,-0.006 -0.006,-0.003 0,0"
         style="fill:#652f8e;fill-opacity:1;fill-rule:nonzero;stroke:none"
         id="path1945" />
    </g>
    <g
       id="g1947"
       transform="matrix(0.35277777,0,0,-0.35277777,112.82644,142.72399)"
       clip-path="url(#clipPath5650)">
      <path
         d="M 0,0 C -0.077,-0.105 -0.151,-0.213 -0.226,-0.319 -0.151,-0.213 -0.077,-0.105 0,0"
         style="fill:#652f8e;fill-opacity:1;fill-rule:nonzero;stroke:none"
         id="path1949" />
    </g>
    <g
       id="g1951"
       transform="matrix(0.35277777,0,0,-0.35277777,113.55595,141.81594)"
       clip-path="url(#clipPath5644)">
      <path
         d="M 0,0 C -0.064,-0.073 -0.126,-0.148 -0.19,-0.221 -0.127,-0.148 -0.064,-0.073 0,0"
         style="fill:#652f8e;fill-opacity:1;fill-rule:nonzero;stroke:none"
         id="path1953" />
    </g>
    <g
       id="g1955"
       transform="matrix(0.35277777,0,0,-0.35277777,112.16806,143.71363)"
       clip-path="url(#clipPath5638)">
      <path
         d="M 0,0 C -0.085,-0.142 -0.167,-0.287 -0.251,-0.43 -0.167,-0.287 -0.085,-0.142 0,0"
         style="fill:#652f8e;fill-opacity:1;fill-rule:nonzero;stroke:none"
         id="path1957" />
    </g>
    <g
       id="g1959"
       transform="matrix(0.35277777,0,0,-0.35277777,116.11903,139.63895)"
       clip-path="url(#clipPath5632)">
      <path
         d="M 0,0 C -0.018,-0.011 -0.035,-0.022 -0.053,-0.033 -0.035,-0.022 -0.018,-0.011 0,0"
         style="fill:#652f8e;fill-opacity:1;fill-rule:nonzero;stroke:none"
         id="path1961" />
    </g>
    <g
       id="g1963"
       transform="matrix(0.35277777,0,0,-0.35277777,111.86703,144.23758)"
       clip-path="url(#clipPath5626)">
      <path
         d="M 0,0 C -0.088,-0.161 -0.171,-0.325 -0.256,-0.487 -0.171,-0.325 -0.088,-0.161 0,0"
         style="fill:#652f8e;fill-opacity:1;fill-rule:nonzero;stroke:none"
         id="path1965" />
    </g>
    <g
       id="g1967"
       transform="matrix(0.35277777,0,0,-0.35277777,115.65608,139.94082)"
       clip-path="url(#clipPath5620)">
      <path
         d="M 0,0 C -0.024,-0.017 -0.049,-0.034 -0.073,-0.051 -0.049,-0.034 -0.024,-0.017 0,0"
         style="fill:#652f8e;fill-opacity:1;fill-rule:nonzero;stroke:none"
         id="path1969" />
    </g>
    <g
       id="g1971"
       transform="matrix(0.35277777,0,0,-0.35277777,116.59464,139.36343)"
       clip-path="url(#clipPath5614)">
      <path
         d="M 0,0 C -0.011,-0.006 -0.022,-0.012 -0.032,-0.018 -0.021,-0.012 -0.011,-0.006 0,0"
         style="fill:#652f8e;fill-opacity:1;fill-rule:nonzero;stroke:none"
         id="path1973" />
    </g>
    <g
       id="g1975"
       transform="matrix(0.35277777,0,0,-0.35277777,114.35101,140.99545)"
       clip-path="url(#clipPath5608)">
      <path
         d="M 0,0 C -0.049,-0.046 -0.096,-0.093 -0.145,-0.139 -0.096,-0.093 -0.049,-0.046 0,0"
         style="fill:#652f8e;fill-opacity:1;fill-rule:nonzero;stroke:none"
         id="path1977" />
    </g>
    <g
       id="g1979"
       transform="matrix(0.35277777,0,0,-0.35277777,114.77156,140.61977)"
       clip-path="url(#clipPath5602)">
      <path
         d="M 0,0 C -0.04,-0.034 -0.08,-0.07 -0.12,-0.104 -0.08,-0.07 -0.04,-0.034 0,0"
         style="fill:#652f8e;fill-opacity:1;fill-rule:nonzero;stroke:none"
         id="path1981" />
    </g>
    <g
       id="g1983"
       transform="matrix(0.35277777,0,0,-0.35277777,111.32552,145.33902)"
       clip-path="url(#clipPath5596)">
      <path
         d="M 0,0 C -0.089,-0.202 -0.171,-0.408 -0.257,-0.612 -0.171,-0.408 -0.089,-0.202 0,0"
         style="fill:#652f8e;fill-opacity:1;fill-rule:nonzero;stroke:none"
         id="path1985" />
    </g>
    <g
       id="g1987"
       transform="matrix(0.35277777,0,0,-0.35277777,111.58597,144.77962)"
       clip-path="url(#clipPath5590)">
      <path
         d="M 0,0 C -0.089,-0.181 -0.172,-0.366 -0.259,-0.549 -0.172,-0.366 -0.089,-0.181 0,0"
         style="fill:#652f8e;fill-opacity:1;fill-rule:nonzero;stroke:none"
         id="path1989" />
    </g>
    <g
       id="g1991"
       transform="matrix(0.35277777,0,0,-0.35277777,110.86913,146.50742)"
       clip-path="url(#clipPath5584)">
      <path
         d="M 0,0 C -0.084,-0.245 -0.16,-0.496 -0.241,-0.744 -0.16,-0.496 -0.084,-0.245 0,0"
         style="fill:#652f8e;fill-opacity:1;fill-rule:nonzero;stroke:none"
         id="path1993" />
    </g>
    <g
       id="g1995"
       transform="matrix(0.35277777,0,0,-0.35277777,117.58291,138.89381)"
       clip-path="url(#clipPath5578)">
      <path
         d="M 0,0 C -0.001,0 -0.002,-0.001 -0.003,-0.001 -0.002,-0.001 -0.001,0 0,0"
         style="fill:#652f8e;fill-opacity:1;fill-rule:nonzero;stroke:none"
         id="path1997" />
    </g>
    <g
       id="g1999"
       transform="matrix(0.35277777,0,0,-0.35277777,111.08619,145.91553)"
       clip-path="url(#clipPath5572)">
      <path
         d="M 0,0 C -0.087,-0.223 -0.167,-0.451 -0.251,-0.676 -0.167,-0.451 -0.087,-0.223 0,0"
         style="fill:#652f8e;fill-opacity:1;fill-rule:nonzero;stroke:none"
         id="path2001" />
    </g>
    <g
       id="g2003"
       transform="matrix(0.35277777,0,0,-0.35277777,115.08443,140.32147)"
       clip-path="url(#clipPath5566)">
      <path
         d="m 0,0 c -0.564,0 -1.059,0.292 -1.347,0.731 -2.731,-1.684 -5.236,-3.723 -7.454,-6.065 0.353,-0.295 0.582,-0.733 0.582,-1.229 0,-0.154 -0.029,-0.3 -0.069,-0.441 l 1.049,-0.993 c -0.041,-0.062 -0.08,-0.126 -0.121,-0.188 0.238,0.358 0.484,0.709 0.733,1.056 0.076,0.106 0.15,0.214 0.226,0.319 0.262,0.357 0.53,0.706 0.802,1.051 0.07,0.088 0.137,0.178 0.207,0.265 0.284,0.353 0.575,0.697 0.869,1.037 0.064,0.073 0.126,0.148 0.19,0.221 0.307,0.347 0.62,0.685 0.937,1.018 0.056,0.058 0.111,0.118 0.167,0.176 0.329,0.34 0.665,0.67 1.005,0.993 0.049,0.046 0.096,0.093 0.145,0.138 0.351,0.33 0.709,0.65 1.072,0.961 0.04,0.035 0.08,0.07 0.12,0.104 0.373,0.317 0.752,0.624 1.137,0.922 C 0.225,0.057 0.2,0.037 0.176,0.018 0.117,0.011 0.06,0 0,0"
         style="fill:#eb008b;fill-opacity:1;fill-rule:nonzero;stroke:none"
         id="path2005" />
    </g>
    <g
       id="g2007"
       transform="matrix(0.35277777,0,0,-0.35277777,109.5345,147.07264)"
       clip-path="url(#clipPath5560)">
      <path
         d="m 0,0 c -0.269,-0.202 -0.599,-0.325 -0.961,-0.325 -0.206,0 -0.4,0.042 -0.581,0.112 -1.227,-3.573 -1.955,-7.394 -2.111,-11.369 0.603,-0.014 1.119,-0.361 1.383,-0.864 h 3.627 v -1.475 h -3.622 c -0.262,-0.508 -0.781,-0.859 -1.388,-0.873 0.157,-3.976 0.887,-7.798 2.115,-11.371 0.159,0.052 0.325,0.087 0.501,0.087 0.361,0 0.692,-0.124 0.961,-0.325 l 2.953,1.429 c 0.042,-0.16 0.088,-0.318 0.132,-0.476 -0.088,0.32 -0.18,0.638 -0.262,0.963 -0.072,0.286 -0.135,0.577 -0.202,0.866 -0.072,0.311 -0.148,0.62 -0.214,0.934 -0.065,0.311 -0.119,0.626 -0.178,0.94 -0.056,0.299 -0.117,0.596 -0.167,0.898 -0.055,0.335 -0.1,0.675 -0.148,1.013 -0.041,0.287 -0.088,0.57 -0.124,0.859 -0.045,0.365 -0.078,0.736 -0.115,1.105 -0.027,0.266 -0.059,0.529 -0.082,0.797 -0.034,0.413 -0.054,0.831 -0.077,1.248 -0.013,0.229 -0.033,0.455 -0.042,0.685 -0.027,0.648 -0.041,1.3 -0.041,1.956 0,0.656 0.014,1.309 0.041,1.957 0.009,0.229 0.029,0.455 0.042,0.683 0.023,0.417 0.043,0.835 0.077,1.248 0.023,0.27 0.056,0.535 0.083,0.803 0.036,0.367 0.069,0.736 0.114,1.1 0.036,0.289 0.083,0.573 0.124,0.86 0.049,0.338 0.093,0.677 0.148,1.012 0.051,0.303 0.112,0.601 0.168,0.902 0.059,0.312 0.113,0.626 0.177,0.935 0.066,0.316 0.143,0.627 0.215,0.94 0.067,0.287 0.129,0.576 0.201,0.861 0.082,0.325 0.174,0.644 0.263,0.966 C 2.966,-1.077 2.921,-1.234 2.879,-1.393 Z"
         style="fill:#eb008b;fill-opacity:1;fill-rule:nonzero;stroke:none"
         id="path2009" />
    </g>
    <g
       id="g2011"
       transform="matrix(0.35277777,0,0,-0.35277777,120.80032,138.20007)"
       clip-path="url(#clipPath5554)">
      <path
         d="m 0,0 c -0.403,-0.012 -0.801,-0.041 -1.201,-0.066 -4.828,-0.305 -9.401,-1.585 -13.547,-3.657 0.097,-0.208 0.155,-0.436 0.155,-0.68 0,-0.223 -0.045,-0.435 -0.126,-0.628 -0.384,-0.267 -0.763,-0.544 -1.136,-0.83 0.394,0.302 0.794,0.594 1.2,0.875 0.024,0.017 0.048,0.035 0.073,0.052 0.414,0.285 0.834,0.559 1.26,0.822 0.017,0.011 0.035,0.022 0.052,0.033 0.433,0.267 0.872,0.521 1.316,0.764 0.011,0.005 0.022,0.011 0.032,0.017 0.451,0.245 0.906,0.478 1.367,0.697 0.006,0.003 0.012,0.006 0.018,0.009 0.466,0.221 0.937,0.43 1.414,0.624 10e-4,10e-4 0.002,10e-4 0.003,0.002 C -6.243,-0.791 -3.18,-0.108 0,0 0,0 0.001,0 0.001,0 0.001,0 0,0 0,0"
         style="fill:#eb008b;fill-opacity:1;fill-rule:nonzero;stroke:none"
         id="path2013" />
    </g>
    <g
       id="g2015"
       transform="matrix(0.35277777,0,0,-0.35277777,112.16044,160.65441)"
       clip-path="url(#clipPath5548)">
      <path
         d="m 0,0 c 0.04,-0.141 0.069,-0.287 0.069,-0.442 0,-0.496 -0.229,-0.934 -0.582,-1.229 2.239,-2.363 4.77,-4.42 7.532,-6.113 0.294,0.381 0.751,0.631 1.269,0.631 0.147,0 0.285,-0.026 0.42,-0.062 0.308,-0.235 0.62,-0.462 0.935,-0.684 0.16,-0.25 0.255,-0.546 0.255,-0.864 0,-0.197 -0.04,-0.383 -0.104,-0.557 4.131,-2.056 8.685,-3.328 13.492,-3.631 0.399,-0.026 0.798,-0.055 1.2,-0.067 -3.18,0.109 -6.242,0.792 -9.119,1.967 -0.001,10e-4 -0.003,10e-4 -0.004,0.002 -0.476,0.195 -0.947,0.403 -1.412,0.624 -0.007,0.003 -0.013,0.006 -0.02,0.009 -0.46,0.219 -0.915,0.451 -1.364,0.696 -0.012,0.006 -0.023,0.013 -0.035,0.019 -0.443,0.242 -0.881,0.496 -1.313,0.761 -0.019,0.012 -0.037,0.024 -0.056,0.035 -0.424,0.262 -0.842,0.536 -1.255,0.82 C 9.882,-8.067 9.856,-8.048 9.829,-8.03 9.426,-7.75 9.027,-7.459 8.635,-7.158 8.6,-7.132 8.567,-7.105 8.532,-7.078 8.15,-6.782 7.773,-6.477 7.402,-6.162 7.359,-6.125 7.317,-6.088 7.274,-6.051 6.914,-5.742 6.558,-5.424 6.209,-5.096 6.159,-5.049 6.11,-5.001 6.06,-4.954 5.721,-4.632 5.386,-4.303 5.059,-3.965 5.002,-3.906 4.946,-3.845 4.889,-3.786 4.573,-3.455 4.26,-3.117 3.955,-2.771 3.89,-2.697 3.827,-2.621 3.762,-2.547 3.469,-2.209 3.18,-1.866 2.897,-1.515 2.825,-1.425 2.755,-1.333 2.684,-1.242 2.414,-0.9 2.147,-0.553 1.887,-0.198 1.81,-0.092 1.735,0.018 1.658,0.125 1.41,0.471 1.166,0.82 0.928,1.176 0.969,1.115 1.007,1.051 1.048,0.991 Z"
         style="fill:#eb008b;fill-opacity:1;fill-rule:nonzero;stroke:none"
         id="path2017" />
    </g>
    <g
       id="g2019"
       transform="matrix(0.35277777,0,0,-0.35277777,109.73491,156.85545)"
       clip-path="url(#clipPath5542)">
      <path
         d="M 0,0 C -0.017,-0.63 -0.394,-1.167 -0.934,-1.416 0.432,-4.532 2.185,-7.42 4.261,-10.019 4.546,-9.761 4.92,-9.6 5.335,-9.6 5.52,-9.6 5.696,-9.638 5.862,-9.696 L 7.11,-8.517 C 7.256,-8.753 7.409,-8.982 7.56,-9.214 7.335,-8.867 7.112,-8.518 6.897,-8.162 6.81,-8.019 6.728,-7.872 6.643,-7.727 6.44,-7.38 6.238,-7.033 6.044,-6.678 5.955,-6.515 5.871,-6.349 5.785,-6.185 5.602,-5.839 5.42,-5.493 5.247,-5.14 5.157,-4.959 5.074,-4.774 4.987,-4.59 4.825,-4.247 4.662,-3.904 4.508,-3.555 4.419,-3.352 4.337,-3.146 4.25,-2.941 4.108,-2.603 3.965,-2.266 3.83,-1.922 3.743,-1.697 3.662,-1.468 3.578,-1.241 3.455,-0.91 3.33,-0.579 3.215,-0.243 3.131,0.002 3.054,0.252 2.974,0.5 2.869,0.826 2.761,1.15 2.663,1.48 2.68,1.424 2.695,1.368 2.712,1.312 Z"
         style="fill:#eb008b;fill-opacity:1;fill-rule:nonzero;stroke:none"
         id="path2021" />
    </g>
    <g
       id="g2023"
       transform="matrix(0.35277777,0,0,-0.35277777,111.80307,143.17078)"
       clip-path="url(#clipPath5536)">
      <path
         d="m 0,0 c -0.166,-0.058 -0.342,-0.096 -0.528,-0.096 -0.414,0 -0.788,0.161 -1.074,0.418 -2.076,-2.599 -3.83,-5.488 -5.195,-8.605 0.581,-0.231 0.993,-0.79 1.011,-1.45 l 2.637,-1.276 c -0.017,-0.057 -0.033,-0.115 -0.05,-0.173 0.098,0.33 0.206,0.654 0.311,0.98 0.08,0.248 0.156,0.498 0.241,0.744 0.116,0.337 0.241,0.669 0.364,1.001 0.084,0.226 0.164,0.453 0.251,0.677 0.135,0.344 0.278,0.683 0.421,1.022 0.086,0.204 0.169,0.41 0.257,0.612 0.154,0.35 0.317,0.693 0.48,1.037 0.086,0.182 0.17,0.368 0.259,0.548 0.174,0.355 0.357,0.703 0.54,1.05 0.086,0.162 0.169,0.326 0.256,0.487 0.195,0.357 0.398,0.707 0.603,1.055 0.084,0.143 0.165,0.289 0.251,0.43 0.216,0.359 0.44,0.71 0.667,1.058 C 1.55,-0.714 1.397,-0.944 1.25,-1.182 Z"
         style="fill:#eb008b;fill-opacity:1;fill-rule:nonzero;stroke:none"
         id="path2025" />
    </g>
    <g
       id="g2027"
       transform="matrix(0.35277777,0,0,-0.35277777,108.73528,151.98373)"
       clip-path="url(#clipPath5530)">
      <path
         d="m 0,0 h 3.622 v 1.475 h -3.627 c -0.263,0.503 -0.779,0.85 -1.383,0.864 -0.013,10e-4 -0.025,0.004 -0.038,0.004 -0.889,0 -1.61,-0.721 -1.61,-1.61 0,-0.889 0.721,-1.61 1.61,-1.61 0.013,0 0.026,0.004 0.039,0.004 C -0.78,-0.858 -0.262,-0.508 0,0"
         style="fill:#23a8e0;fill-opacity:1;fill-rule:nonzero;stroke:none"
         id="path2029" />
    </g>
    <g
       id="g2031"
       transform="matrix(0.35277777,0,0,-0.35277777,115.56238,163.44118)"
       clip-path="url(#clipPath5524)">
      <path
         d="m 0,0 c -0.315,0.222 -0.627,0.449 -0.935,0.684 -0.135,0.037 -0.274,0.062 -0.42,0.062 -0.519,0 -0.975,-0.249 -1.27,-0.631 -0.21,-0.272 -0.34,-0.608 -0.34,-0.979 0,-0.889 0.721,-1.61 1.61,-1.61 0.693,0 1.278,0.44 1.505,1.054 0.065,0.174 0.105,0.36 0.105,0.556 C 0.255,-0.545 0.16,-0.25 0,0"
         style="fill:#23a8e0;fill-opacity:1;fill-rule:nonzero;stroke:none"
         id="path2033" />
    </g>
    <g
       id="g2035"
       transform="matrix(0.35277777,0,0,-0.35277777,115.65237,139.75349)"
       clip-path="url(#clipPath5518)">
      <path
         d="m 0,0 c 0,0.244 -0.058,0.473 -0.155,0.68 -0.257,0.548 -0.81,0.93 -1.455,0.93 -0.889,0 -1.61,-0.721 -1.61,-1.61 0,-0.325 0.098,-0.626 0.263,-0.879 0.288,-0.439 0.783,-0.731 1.347,-0.731 0.06,0 0.117,0.011 0.176,0.018 0.024,0.019 0.049,0.039 0.074,0.058 0.032,0.025 0.065,0.051 0.098,0.076 0.373,0.287 0.752,0.563 1.135,0.831 C -0.045,-0.434 0,-0.223 0,0"
         style="fill:#23a8e0;fill-opacity:1;fill-rule:nonzero;stroke:none"
         id="path2037" />
    </g>
    <g
       id="g2039"
       transform="matrix(0.35277777,0,0,-0.35277777,109.76179,146.6043)"
       clip-path="url(#clipPath5512)">
      <path
         d="m 0,0 c -0.018,0.66 -0.43,1.219 -1.011,1.45 -0.184,0.074 -0.384,0.117 -0.595,0.117 -0.889,0 -1.61,-0.721 -1.61,-1.61 0,-0.684 0.429,-1.265 1.03,-1.498 0.181,-0.07 0.375,-0.112 0.58,-0.112 0.362,0 0.693,0.124 0.962,0.325 L 2.234,-2.72 c 0.042,0.158 0.088,0.315 0.132,0.473 0.073,0.266 0.143,0.535 0.221,0.798 0.017,0.058 0.033,0.116 0.05,0.173 z"
         style="fill:#23a8e0;fill-opacity:1;fill-rule:nonzero;stroke:none"
         id="path2041" />
    </g>
    <g
       id="g2043"
       transform="matrix(0.35277777,0,0,-0.35277777,112.16044,142.79243)"
       clip-path="url(#clipPath5506)">
      <path
         d="m 0,0 c 0.04,0.141 0.069,0.287 0.069,0.442 0,0.495 -0.229,0.933 -0.582,1.229 -0.279,0.234 -0.635,0.38 -1.028,0.38 -0.889,0 -1.61,-0.72 -1.61,-1.609 0,-0.475 0.21,-0.898 0.536,-1.192 0.286,-0.257 0.66,-0.418 1.074,-0.418 0.186,0 0.362,0.038 0.528,0.096 l 1.25,-1.182 c 0.147,0.237 0.3,0.468 0.452,0.701 0.08,0.124 0.158,0.249 0.239,0.372 0.042,0.062 0.08,0.127 0.122,0.188 z"
         style="fill:#23a8e0;fill-opacity:1;fill-rule:nonzero;stroke:none"
         id="path2045" />
    </g>
    <g
       id="g2047"
       transform="matrix(0.35277777,0,0,-0.35277777,109.50758,156.38714)"
       clip-path="url(#clipPath5500)">
      <path
         d="m 0,0 c -0.269,0.202 -0.599,0.325 -0.961,0.325 -0.176,0 -0.342,-0.035 -0.5,-0.087 -0.643,-0.211 -1.11,-0.809 -1.11,-1.523 0,-0.889 0.721,-1.61 1.61,-1.61 0.24,0 0.466,0.057 0.671,0.151 0.541,0.25 0.918,0.787 0.934,1.417 l 2.712,1.312 C 3.339,0.04 3.324,0.097 3.308,0.152 3.229,0.417 3.159,0.686 3.086,0.953 3.042,1.112 2.996,1.269 2.953,1.429 Z"
         style="fill:#23a8e0;fill-opacity:1;fill-rule:nonzero;stroke:none"
         id="path2049" />
    </g>
    <g
       id="g2051"
       transform="matrix(0.35277777,0,0,-0.35277777,111.80307,160.27606)"
       clip-path="url(#clipPath5494)">
      <path
         d="m 0,0 c -0.166,0.058 -0.342,0.096 -0.528,0.096 -0.414,0 -0.788,-0.161 -1.074,-0.418 -0.327,-0.295 -0.536,-0.717 -0.536,-1.192 0,-0.889 0.721,-1.61 1.61,-1.61 0.393,0 0.749,0.147 1.028,0.381 0.353,0.295 0.582,0.733 0.582,1.229 0,0.154 -0.029,0.3 -0.069,0.441 l 1.048,0.991 C 2.02,-0.021 1.982,0.042 1.941,0.104 1.858,0.228 1.779,0.356 1.697,0.482 1.547,0.714 1.394,0.943 1.248,1.18 Z"
         style="fill:#23a8e0;fill-opacity:1;fill-rule:nonzero;stroke:none"
         id="path2053" />
    </g>
  </g>
</svg>
